<svg xmlns="http://www.w3.org/2000/svg"><defs><font horiz-adv-x="544" id="294099f3-8d00-4676-afc5-5e9d8d43ad69"><font-face panose-1="2 11 6 3 2 2 3 2 2 4" ascent="924" descent="-282" alphabetic="0"/><glyph/><glyph horiz-adv-x="0"/><glyph horiz-adv-x="278"/><glyph unicode="!" horiz-adv-x="278" d="M185 204H89v504h96V204zM73 60q0 27 19 46t47 20q27 0 46-19t20-47q0-27-19-46T139-6q-27 0-46 19T73 60z"/><glyph unicode="&quot;" horiz-adv-x="519" d="M146 708h78V462h-78v246zm149 0h78V462h-78v246z"/><glyph unicode="#" horiz-adv-x="556" d="M120 204H25v78h106l20 144H56v78h106l28 204h79l-28-204h116l28 204h79l-28-204h95v-78H425l-20-144h95v-78H394L366 0h-79l28 204H199L171 0H92l28 204zm110 222l-20-144h116l20 144H230z"/><glyph unicode="$" horiz-adv-x="556" d="M300 720q55 0 107-18t91-59l-72-70q-23 29-55 45t-71 18V400l-2-1q43-12 82-26t70-37 48-57 18-85q0-46-17-83t-47-63-69-42-83-18v-72h-54v72q-66 0-122 21T26 84l77 69q23-38 62-58t81-23v246q-41 10-77 25t-65 40-45 58-17 82q0 43 17 77t45 60 65 41 77 19v72h54v-72zm-54-84q-48-8-78-36t-30-77q0-24 9-41t24-31 34-22 41-15v222zm54-564q25 3 46 12t38 24 26 35 10 47q0 26-10 44t-27 32-39 22-44 16V72z"/><glyph unicode="%" horiz-adv-x="852" d="M235-31L175 0l445 740 60-31L235-31zM37 549q0 37 14 69t38 56 56 38 69 14q37 0 69-14t56-38 38-56 14-69q0-37-14-69t-38-56-56-38-69-14q-37 0-69 14t-56 38-38 56-14 69zm78 0q0-42 28-70t71-29q42 0 70 28t29 71q0 42-28 70t-71 29q-42 0-70-28t-29-71zm346-390q0 37 14 69t38 56 56 38 69 14q37 0 69-14t56-38 38-56 14-69q0-37-14-69t-38-56-56-38-69-14q-37 0-69 14t-56 38-38 56-14 69zm78 0q0-42 28-70t71-29q42 0 70 28t29 71q0 42-28 70t-71 29q-42 0-70-28t-29-71z"/><glyph unicode="&amp;" horiz-adv-x="722" d="M712 0H583l-87 94q-45-54-95-83T279-18q-60 0-104 17t-72 47-42 65-14 76q0 37 13 67t35 56 51 45 62 35q-34 36-58 74t-25 90q0 40 15 71t42 52 60 32 72 11q37 0 70-10t59-30 39-50 15-70q0-33-13-60t-34-50-47-40-53-32l140-146 89 145h109L551 165 712 0zM401 560q0 35-24 55t-62 21q-38 0-66-21t-28-62q0-18 6-34t17-31 23-28 24-25q18 10 37 22t36 27 26 33 11 43zM268 334q-21-12-42-26t-39-31-27-38-11-49q0-26 11-48t30-40 42-26 50-10q26 0 48 8t42 20 36 29 31 33L268 334z"/><glyph unicode="'" horiz-adv-x="278" d="M178 462h-78v246h78V462z"/><glyph unicode="(" horiz-adv-x="278" d="M254 690q-32-51-56-98t-40-95-24-101-8-112q0-110 32-213t96-191l-60-40Q125-66 87 47T48 284q0 115 37 230t109 214l60-38z"/><glyph unicode=")" horiz-adv-x="278" d="M24-122q32 51 56 98t40 95 24 101 8 112q0 110-32 213T24 688l60 40q69-94 107-207t39-237q0-115-37-230T84-160l-60 38z"/><glyph unicode="*" horiz-adv-x="464" d="M269 561l139 47 21-67-139-45 88-119-55-41-91 122-89-120-55 41 89 117-142 48 21 65 141-48v147h72V561z"/><glyph unicode="+" horiz-adv-x="666" d="M66 342h228v228h78V342h228v-78H372V36h-78v228H66v78z"/><glyph unicode="," horiz-adv-x="278" d="M130-132H48l69 246h97l-84-246z"/><glyph unicode="-" horiz-adv-x="316" d="M281 200H35v84h246v-84z"/><glyph unicode="." horiz-adv-x="278" d="M139-6q-27 0-46 19T73 60q0 27 19 46t47 20q27 0 46-19t20-47q0-27-19-46T139-6z"/><glyph unicode="/" horiz-adv-x="389" d="M70-44L0-18l320 770 69-26L70-44z"/><glyph unicode="0" horiz-adv-x="556" d="M34 354q0 39 4 81t14 82 28 78 45 64 65 44 88 17q50 0 87-16t65-44 45-65 28-77 15-83 4-81q0-56-10-120t-37-119-74-91-123-36q-75 0-122 36t-75 91-37 119-10 120zm96 0q0-35 4-83t20-92 44-76 80-31q50 0 79 31t45 75 19 93 5 83q0 24-1 54t-7 62-16 61-26 53-41 38-57 14q-33 0-57-14t-40-37-27-53-15-61-7-62-2-55z"/><glyph unicode="1" horiz-adv-x="556" d="M270 598L140 478l-56 67 197 163h85V0h-96v598z"/><glyph unicode="2" horiz-adv-x="556" d="M46 102l284 282q15 14 29 30t25 35 17 38 7 42q0 26-9 47t-26 35-39 23-48 8q-52 0-86-29t-43-80l-104 9q7 47 27 81t51 58 70 34 86 11q46 0 86-12t71-37 48-61 18-86q0-35-10-65t-28-58-39-51-46-47L154 84h356V0H46v102z"/><glyph unicode="3" horiz-adv-x="556" d="M147 173q17-51 45-76t85-25q28 0 52 9t44 26 30 40 11 53q0 44-18 70t-48 40-64 18-69 4v84q55 0 90 7t55 22 28 35 8 47q0 57-34 86t-85 29q-39 0-70-22t-48-60l-98 33q28 68 85 100t129 33q43 0 82-11t70-36 47-60 18-86q0-56-33-100t-88-60v-2q33-6 59-22t44-40 27-53 9-63q0-51-19-89t-52-64-75-39-90-13q-81 0-142 37T46 142l101 31z"/><glyph unicode="4" horiz-adv-x="556" d="M336 156H34v98l282 454h116V240h100v-84H432V0h-96v156zm0 438h-2L118 240h218v354z"/><glyph unicode="5" horiz-adv-x="556" d="M471 618H184l-3-177q7 3 20 6t26 5 27 3 22 1q50 0 90-17t70-48 44-74 16-95q0-53-19-96t-54-74-79-47-97-17q-72 0-130 37T34 131l97 33q19-49 51-70t80-22q28 0 53 10t44 28 30 46 11 61q0 78-47 116t-124 39q-27 0-68-9t-78-28l8 373h380v-90z"/><glyph unicode="6" horiz-adv-x="556" d="M220 434h4q33 16 78 16 38 0 77-13t70-40 52-70 20-101q0-59-19-103t-53-75-77-45-94-15q-50 0-94 16t-77 46-52 72-20 94q0 33 5 60t14 51 23 48 29 50l179 283h113L220 434zm-89-215q0-32 10-59t30-46 47-31 60-11q33 0 60 11t46 30 30 47 11 59q0 32-10 59t-30 46-47 31-60 11q-33 0-60-11t-46-30-30-47-11-59z"/><glyph unicode="7" horiz-adv-x="556" d="M384 624H42v84h445v-82L205 0H97l287 624z"/><glyph unicode="8" horiz-adv-x="556" d="M278-12q-48 0-90 14t-74 43-49 68-18 90q0 33 10 61t29 50 42 38 54 24v3q-20 5-40 18t-35 33-26 48-10 66q0 40 16 72t45 56 66 35 80 13q42 0 79-12t66-36 45-55 17-73q0-37-10-65t-25-49-36-33-40-18v-3q29-8 53-23t43-38 28-51 11-61q0-50-18-90t-49-68-73-42-91-15zM167 530q0-21 7-41t22-35 34-26 48-10q28 0 48 9t35 25 21 36 7 42q0 49-30 80t-81 32q-46 0-78-31t-33-81zM278 72q60 0 97 36t38 95q0 32-10 56t-29 41-43 25-53 9q-59-1-97-37t-38-94q0-31 11-55t29-41 43-26 52-9z"/><glyph unicode="9" horiz-adv-x="556" d="M336 274h-4q-33-16-78-16-38 0-77 13t-70 40-52 70-20 101q0 58 19 102t53 75 77 45 94 16q50 0 94-16t77-46 52-72 20-94q0-33-5-60t-14-51-23-49-29-49L271 0H158l178 274zm89 215q0 32-10 59t-30 46-47 31-60 11q-33 0-60-11t-46-30-30-47-11-59q0-32 10-59t30-46 47-31 60-11q33 0 60 11t46 30 30 47 11 59z"/><glyph unicode=":" horiz-adv-x="278" d="M139 348q-27 0-46 19t-20 47q0 27 19 46t47 20q27 0 46-19t20-47q0-27-19-46t-47-20zM73 60q0 27 19 46t47 20q27 0 46-19t20-47q0-27-19-46T139-6q-27 0-46 19T73 60z"/><glyph unicode=";" horiz-adv-x="278" d="M130-132H48l69 246h97l-84-246zM73 413q0 27 19 46t47 20q27 0 46-19t20-47q0-27-19-46t-47-20q-27 0-46 19t-20 47z"/><glyph unicode="&lt;" horiz-adv-x="666" d="M600 43L66 262v82l534 220v-79L148 303l452-182V43z"/><glyph unicode="=" horiz-adv-x="666" d="M600 420v-78H66v78h534zm0-157v-78H66v78h534z"/><glyph unicode="&gt;" horiz-adv-x="666" d="M66 563l534-219v-82L66 42v79l452 182L66 485v78z"/><glyph unicode="?" horiz-adv-x="500" d="M210 198v61q0 27 4 45t12 32 21 28 34 33l32 30q16 15 29 32t21 35 9 42q0 23-8 42t-23 34-33 22-42 8q-49 0-79-31t-37-81L48 540q13 87 72 136t148 50q42 0 78-12t64-36 42-58 16-79q0-38-11-66t-31-54l-60-62-10-9q-16-15-25-25t-15-22-8-26-2-35v-44h-96zM191 60q0 27 19 46t47 20q27 0 46-19t20-47q0-27-19-46T257-6q-27 0-46 19t-20 47z"/><glyph unicode="@" horiz-adv-x="800" d="M422 485q-35 0-62-15t-45-42-28-60-10-70q0-37 16-58t55-22q30 0 55 17t44 44 28 57 10 61q0 35-15 61t-48 27zm109-218q-5-17-5-25 0-24 29-24 21 0 43 15t39 43 29 62 12 76q0 59-21 104t-57 77-83 48-101 17q-64 0-118-24t-93-65-61-98-22-121q0-66 23-122t63-96 95-63 118-23q72 0 134 26t99 75h79q-21-38-54-69t-76-52-89-34-95-12q-79 0-147 29T153 90 73 209 44 356q0 77 29 144t80 118 118 79 144 29q70 0 132-23t108-63 74-96 27-122q0-64-23-116t-59-89-77-57-76-20q-26 0-44 16t-19 48h-4q-23-24-55-44t-69-20q-32 0-57 12t-43 34-27 49-10 62q0 49 16 97t45 85 70 61 93 23q35 0 64-17t43-59h2l16 57h73l-84-277z"/><glyph unicode="A" horiz-adv-x="704" d="M313 708h87L703 0H591l-71 175H183L113 0H1l312 708zm172-449L353 584h-2L217 259h268z"/><glyph unicode="B" horiz-adv-x="630" d="M91 708h246q46 0 85-11t68-32 45-55 17-79q0-61-34-99t-88-57v-2q32-2 60-16t48-38 33-55 12-67q0-48-19-84t-54-62-79-38-97-13H91v708zm96-294h131q27 0 51 5t42 19 28 33 11 49q0 42-27 73t-85 31H187V414zm0-330h141q22 0 48 4t50 18 39 37 16 61q0 63-41 94t-111 32H187V84z"/><glyph unicode="C" horiz-adv-x="704" d="M584 555q-30 39-76 60t-95 21q-60 0-108-22t-83-62-54-91-19-113q0-56 18-106t52-88 83-60 111-22q61 0 107 25t78 70l81-61q-8-11-28-31t-53-41-79-36-108-16q-84 0-151 32T145 98 72 215 47 348q0 82 27 151t75 120 117 79 150 28q70 0 137-27t111-83l-80-61z"/><glyph unicode="D" horiz-adv-x="741" d="M75 708h247q75 0 131-17t98-45 69-66 44-76 23-78 7-72q0-68-25-131t-74-113-121-80T306 0H75v708zm96-618h121q61 0 115 16t96 50 65 82 24 116q0 34-11 79t-41 87-85 69-140 29H171V90z"/><glyph unicode="E" horiz-adv-x="611" d="M91 708h457v-90H187V407h336v-90H187V90h379V0H91v708z"/><glyph unicode="F" horiz-adv-x="574" d="M91 708h445v-90H187V396h325v-90H187V0H91v708z"/><glyph unicode="G" horiz-adv-x="778" d="M694 396V47q-26-16-59-28T567-1t-72-13-69-4q-90 0-160 30T147 93 73 211 47 354q0 79 27 147t76 118 117 78 149 29q98 0 160-24t104-68l-68-73q-44 42-93 58t-103 17q-61 0-110-22t-84-61-54-89-19-110q0-60 21-111t58-90 87-59 109-22q51 0 96 9t78 28v197H441v90h253z"/><glyph unicode="H" horiz-adv-x="741" d="M91 708h96V414h367v294h96V0h-96v324H187V0H91v708z"/><glyph unicode="I" horiz-adv-x="278" d="M91 708h96V0H91v708z"/><glyph unicode="J" horiz-adv-x="482" d="M312 708h96V202q0-67-21-109t-52-67-68-34-66-10q-75 0-126 38T9 137l94 21q8-40 33-63t65-23q36 0 57 14t34 36 16 52 4 59v475z"/><glyph unicode="K" horiz-adv-x="648" d="M91 708h96V402h8l313 306h134L300 381 665 0H525L195 354h-8V0H91v708z"/><glyph unicode="L" horiz-adv-x="519" d="M91 708h96V90h325V0H91v708z"/><glyph unicode="M" horiz-adv-x="906" d="M84 708h143l225-536h4l223 536h143V0h-96v582h-2L485 0h-64L182 582h-2V0H84v708z"/><glyph unicode="N" horiz-adv-x="796" d="M91 708h126l390-582h2v582h96V0H583L189 582h-2V0H91v708z"/><glyph unicode="O" horiz-adv-x="832" d="M416-18q-81 0-149 28T151 89 75 207 47 354q0 79 27 147t76 118 117 78 149 29q81 0 149-28t116-79 76-118 28-147q0-79-27-147T682 89 565 11 416-18zm0 90q61 0 110 22t84 61 54 89 19 110q0 58-19 109t-54 90-84 60-110 23q-61 0-110-22t-84-61-54-89-19-110q0-58 19-109t54-90 84-60 110-23z"/><glyph unicode="P" horiz-adv-x="593" d="M91 708h249q68 0 112-18t69-47 36-64 10-69q0-33-10-68t-35-64-70-47-112-19H187V0H91v708zm96-312h126q28 0 55 4t49 17 35 34 13 59q0 36-13 58t-34 35-49 16-56 5H187V396z"/><glyph unicode="Q" horiz-adv-x="832" d="M822 0H414q-75 0-142 27t-117 75-79 114-29 146q0 78 28 144t77 116 116 76 145 28q75 0 140-27t115-74 77-112 29-141q0-45-10-88t-31-82-51-68-70-48v-2h210V0zM410 90q58 0 106 21t83 59 54 89 19 109q0 56-19 105t-55 85-83 57-105 21q-56 0-103-21t-83-57-55-84-20-104q0-58 19-109t53-89 83-60 106-22z"/><glyph unicode="R" horiz-adv-x="611" d="M91 708h249q68 0 112-18t69-47 36-64 10-69q0-34-12-65t-34-57-55-43-73-22L594 0H474L294 312H187V0H91v708zm96-312h126q28 0 55 4t49 17 35 34 13 59q0 36-13 58t-34 35-49 16-56 5H187V396z"/><glyph unicode="S" horiz-adv-x="556" d="M112 148q26-39 66-57t84-19q24 0 49 7t45 23 34 37 13 51q0 41-26 62t-64 36-84 28-84 38-65 64-26 110q0 31 13 66t43 64 74 48 110 20q58 0 111-16t93-65l-78-71q-18 28-51 45t-75 17q-40 0-66-10t-43-27-22-36-7-35q0-45 26-69t64-39 84-27 84-33 65-58 26-101q0-51-19-92t-53-69-78-43-96-15q-68 0-129 24T33 80l79 68z"/><glyph unicode="T" horiz-adv-x="574" d="M239 618H11v90h552v-90H335V0h-96v618z"/><glyph unicode="U" horiz-adv-x="704" d="M174 708V274q0-33 9-68t30-66 55-49 84-19q50 0 84 19t55 49 30 65 9 69v434h96V259q0-62-21-112t-58-88-87-57-108-20q-58 0-108 20t-87 57-58 87-21 113v449h96z"/><glyph unicode="V" horiz-adv-x="630" d="M-6 708h111l208-576h2l216 576h105L357 0h-90L-6 708z"/><glyph unicode="W" horiz-adv-x="962" d="M1 708h100l156-566h2l167 566h110l167-566h2l156 566h100L755 0H654L482 578h-2L309 0H208L1 708z"/><glyph unicode="X" horiz-adv-x="648" d="M255 372L17 708h123l184-272 182 272h120L390 373 650 0H524L321 307 117 0H-2l257 372z"/><glyph unicode="Y" horiz-adv-x="612" d="M258 302L-10 708h123l193-311 199 311h117L354 302V0h-96v302z"/><glyph unicode="Z" horiz-adv-x="593" d="M32 90l403 528H44v90h511v-90L154 90h407V0H32v90z"/><glyph unicode="[" horiz-adv-x="278" d="M72 728h174v-66h-90V-94h90v-66H72v888z"/><glyph unicode="\" horiz-adv-x="389" d="M0 726l69 26L389-18l-70-26L0 726z"/><glyph unicode="]" horiz-adv-x="278" d="M32-94h90v756H32v66h174v-888H32v66z"/><glyph unicode="^" horiz-adv-x="666" d="M293 708h80l213-432h-83L333 629 163 276H80l213 432z"/><glyph unicode="_" horiz-adv-x="500" d="M0-75h500v-50H0v50z"/><glyph unicode="`" horiz-adv-x="240" d="M186 564h-83L-46 708H82l104-144z"/><glyph unicode="a" horiz-adv-x="519" d="M70 416q38 35 88 52t100 18q52 0 89-13t62-35 35-50 12-60V86q0-25 1-46t3-40h-80q-3 36-3 72h-2q-30-46-71-65t-95-19q-33 0-63 9T94 24 58 68t-13 62q0 46 20 77t56 50 83 28 102 9h66v20q0 18-7 36t-21 32-35 23-50 9q-26 0-45-5t-36-12-29-18-25-19l-54 56zm254-188q-32 0-65-3t-61-14-45-28-18-46q0-41 27-59t75-18q37 0 63 12t42 33 23 44 7 49v30h-48z"/><glyph unicode="b" horiz-adv-x="611" d="M68 756h90V406h2q24 37 69 58t96 22q55 0 99-19t76-52 49-79 17-99q0-53-17-98t-48-79-76-53-100-19q-48 0-93 21t-72 59h-2V0H68v756zM314 72q36 0 65 12t49 34 31 52 11 67q0 36-11 66t-31 52-49 34-65 13q-36 0-65-12t-49-34-31-52-11-67q0-36 11-66t31-52 49-34 65-13z"/><glyph unicode="c" horiz-adv-x="482" d="M407 348q-25 26-52 39t-66 14q-37 0-64-13t-46-37-28-54-10-64q0-33 11-62t31-52 48-34 63-13q38 0 65 13t50 40l64-64q-35-39-81-56t-99-17q-55 0-100 18t-79 50-51 78-18 101q0 55 18 101t50 79 78 51 102 19q52 0 99-18t83-57l-68-62z"/><glyph unicode="d" horiz-adv-x="611" d="M543 0h-90v68h-2q-26-38-71-59t-94-21q-55 0-99 19t-76 53-49 79-17 98q0 53 17 98t48 79 76 53 100 19q51 0 96-21t69-59h2v350h90V0zM297 72q36 0 65 12t49 34 31 52 11 67q0 36-11 66t-31 52-49 34-65 13q-36 0-65-12t-49-34-31-52-11-67q0-36 11-66t31-52 49-34 65-13z"/><glyph unicode="e" horiz-adv-x="556" d="M136 204q0-31 13-56t36-44 51-28 60-10q42 0 73 19t57 52l68-52q-75-97-210-97-56 0-101 19t-77 52-49 79-17 99q0 53 18 98t51 79 78 53 98 19q63 0 106-22t72-57 40-80 13-91v-32H136zm284 72q-1 30-9 55t-26 43-42 29-60 11q-33 0-60-12t-47-33-29-44-11-49h284z"/><glyph unicode="f" horiz-adv-x="333" d="M103 396H1v78h102v106q0 95 36 141t126 47q15 0 31-1t36-6l-10-80q-13 5-25 7t-26 2q-25 0-40-7t-23-22-11-33-3-45V474h107v-78H193V0h-90v396z"/><glyph unicode="g" horiz-adv-x="611" d="M543 4q0-54-18-98t-53-77-82-51-106-18q-68 0-124 19T52-155l61 76q35-38 76-57t93-20q50 0 83 14t52 38 28 52 8 60v70h-3q-26-43-70-63T286-6q-52 0-96 18t-77 51-50 77-18 97q0 52 17 97t48 80 76 53 100 19q48 0 93-21t72-59h2v68h90V4zM297 402q-36 0-65-12t-49-34-31-52-11-67q0-72 42-115t114-44q72 0 114 43t42 116q0 36-11 66t-31 52-49 34-65 13z"/><glyph unicode="h" horiz-adv-x="556" d="M68 756h90V401h2q17 38 59 61t97 24q34 0 65-10t55-33 38-56 14-82V0h-90v280q0 33-9 56t-24 38-34 21-41 7q-28 0-52-9t-42-28-28-50-10-71V0H68v756z"/><glyph unicode="i" horiz-adv-x="240" d="M75 474h90V0H75v474zM54 644q0 27 19 46t47 20q27 0 46-19t20-47q0-27-19-46t-47-20q-27 0-46 19t-20 47z"/><glyph unicode="j" horiz-adv-x="240" d="M165 474V-68q0-18-2-47t-16-57-43-48-84-20q-15 0-29 2t-29 7l10 83q8-3 18-5t19-3q37 0 51 23t15 69v538h90zM54 644q0 27 19 46t47 20q27 0 46-19t20-47q0-27-19-46t-47-20q-27 0-46 19t-20 47z"/><glyph unicode="k" horiz-adv-x="519" d="M68 756h90V268l204 205h125L266 258 506 0H378L158 246V0H68v756z"/><glyph unicode="l" horiz-adv-x="240" d="M75 756h90V0H75v756z"/><glyph unicode="m" horiz-adv-x="852" d="M68 474h84v-74h2q3 10 15 25t32 28 46 23 59 10q53 0 89-22t59-66q23 44 65 66t85 22q55 0 90-18t55-47 27-67 8-78V0h-90v264q0 27-3 52t-15 44-31 30-53 12q-65 0-93-40t-28-103V0h-90v248q0 34-3 62t-14 48-30 32-53 12q-24 0-46-9t-40-29-27-48-10-70V0H68v474z"/><glyph unicode="n" horiz-adv-x="556" d="M68 474h90v-73h2q17 38 59 61t97 24q34 0 65-10t55-33 38-56 14-82V0h-90v280q0 33-9 56t-24 38-34 21-41 7q-28 0-52-9t-42-28-28-50-10-71V0H68v474z"/><glyph unicode="o" horiz-adv-x="594" d="M141 237q0-36 11-66t31-52 49-34 65-13q36 0 65 12t49 34 31 52 11 67q0 36-11 66t-31 52-49 34-65 13q-36 0-65-12t-49-34-31-52-11-67zm-96 0q0 52 19 97t54 79 80 53 99 20q53 0 99-19t80-54 53-79 20-97q0-52-19-97t-54-79-80-53-99-20q-53 0-99 19t-80 53-53 79-20 98z"/><glyph unicode="p" horiz-adv-x="611" d="M68 474h90v-68h2q26 38 71 59t94 21q55 0 99-19t76-53 49-79 17-98q0-53-17-98t-48-79-76-53-100-19q-51 0-96 21t-69 59h-2v-350H68v756zm246-72q-36 0-65-12t-49-34-31-52-11-67q0-36 11-66t31-52 49-34 65-13q36 0 65 12t49 34 31 52 11 67q0 36-11 66t-31 52-49 34-65 13z"/><glyph unicode="q" horiz-adv-x="611" d="M543-228h-90V68h-2q-24-37-69-58t-96-22q-55 0-99 19t-76 52-49 79-17 99q0 52 17 97t48 80 76 53 100 19q48 0 93-21t72-59h2v68h90v-702zM297 402q-36 0-65-12t-49-34-31-52-11-67q0-36 11-66t31-52 49-34 65-13q36 0 65 12t49 34 31 52 11 67q0 36-11 66t-31 52-49 34-65 13z"/><glyph unicode="r" horiz-adv-x="370" d="M68 474h90v-73h2q9 19 24 34t33 27 41 17 44 7q22 0 40-6l-4-97q-11 3-22 5t-22 2q-66 0-101-37t-35-115V0H68v474z"/><glyph unicode="s" horiz-adv-x="444" d="M320 355q-16 20-39 33t-58 14q-32 0-55-13t-24-40q0-21 13-34t32-21 40-12 36-7q29-7 54-17t44-26 29-39 11-56q0-40-17-68t-44-47-61-26-70-8q-59 0-103 18T28 72l68 56q22-22 49-39t66-17q17 0 34 3t31 11 22 19 9 27q0 20-12 33t-30 20-37 12-35 8q-29 7-55 16t-46 24-32 38-12 57q0 37 15 64t41 46 58 27 66 9q48 0 92-18t70-60l-70-53z"/><glyph unicode="t" horiz-adv-x="370" d="M322 396H193V181q0-20 1-39t7-35 20-25 40-10q16 0 33 3t31 11V4q-16-9-41-12t-40-4q-52 0-80 14t-42 38-16 51-3 58v247H-1v78h104v133h90V474h129v-78z"/><glyph unicode="u" horiz-adv-x="556" d="M488 0h-90v73h-2q-17-38-59-61t-97-24q-35 0-66 10t-54 33-38 56-14 82v305h90V194q0-33 9-56t24-38 34-21 41-7q28 0 52 9t42 28 28 50 10 71v244h90V0z"/><glyph unicode="v" horiz-adv-x="500" d="M11 474h104l142-363 136 363h96L303 0h-99L11 474z"/><glyph unicode="w" horiz-adv-x="759" d="M11 474h101l107-354h2l113 354h95l120-354h2l102 354h95L595 0h-91L379 354h-2L264 0h-97L11 474z"/><glyph unicode="x" horiz-adv-x="519" d="M198 253L30 474h116l115-168 113 168h109L321 253 513 0H397L257 199 117 0H6l192 253z"/><glyph unicode="y" horiz-adv-x="500" d="M11 474h104l141-370h2l134 370h97L264-102q-12-31-25-56t-31-44-43-28-63-10q-20 0-40 2t-40 11l11 82q27-11 54-11 21 0 35 5t25 16 18 25 14 32l29 75L11 474z"/><glyph unicode="z" horiz-adv-x="463" d="M35 81l269 315H44v78h370v-80L143 78h285V0H35v81z"/><glyph unicode="{" horiz-adv-x="333" d="M304 656h-45q-15 0-24-7t-16-20-8-28-3-32V418q1-35-8-59t-24-40-28-24-24-10v-3q9-1 23-8t29-22 23-40 9-64V-2q0-15 2-30t9-28 15-20 25-8h45v-72h-75q-19 0-37 9t-34 27-24 48-10 69v134q-2 55-26 86t-58 31v78q34 0 58 31t26 86v158q0 32 9 56t25 41 33 25 38 9h75v-72z"/><glyph unicode="|" horiz-adv-x="222" d="M72 756h78V-18H72v774z"/><glyph unicode="}" horiz-adv-x="333" d="M29-88h45q15 0 24 7t16 20 8 28 3 32v151q-1 35 8 59t24 40 28 24 24 10v3q-9 1-23 8t-29 22-23 40-9 64v150q0 15-2 30t-9 28-15 20-25 8H29v72h75q19 0 37-9t34-27 24-48 10-69V441q0-55 25-86t59-31v-78q-34 0-59-31t-25-86V-29q0-32-9-56t-25-41-33-25-38-9H29v72z"/><glyph unicode="~" horiz-adv-x="666" d="M570 316q-30-51-62-69t-66-19q-29 0-58 11t-58 25q-29 14-55 25t-51 11q-16 0-29-6t-23-17-18-23-14-26l-40 62q23 39 54 63t79 25q30 0 58-11t55-25q26-14 51-25t48-12q24 0 46 15t43 58l40-62z"/><glyph horiz-adv-x="278"/><glyph unicode="¡" horiz-adv-x="278" d="M93 282h96v-504H93v504zm112 144q0-27-19-46t-47-20q-27 0-46 19t-20 47q0 27 19 46t47 20q27 0 46-19t20-47z"/><glyph unicode="¢" horiz-adv-x="556" d="M342 66q63 2 106 52l59-58q-29-33-71-50t-94-22v-66h-54v66q-50 5-90 26t-68 54-43 76-15 93q0 51 15 93t43 75 68 53 90 28v66h54v-66q48-2 92-21t75-55l-65-59q-19 23-46 39t-56 18V66zm-54 342q-31-5-54-20t-40-39-24-51-8-59q0-31 8-59t25-52 39-40 54-22v342z"/><glyph unicode="£" horiz-adv-x="556" d="M432 328H270V84h246V0H72v84h102v244H78v72h96v100q0 43 14 83t41 70 69 49 96 18q48 0 91-14t78-48l-61-70q-23 22-48 35t-50 13q-26 0-50-8t-43-28-30-49-11-75v-76h162v-72z"/><glyph unicode="¤" horiz-adv-x="556" d="M78 611l49-48q35 25 73 37t78 12q39 0 77-12t74-37l49 48 57-56-49-49q25-34 37-72t12-79q0-40-12-78t-37-73l49-49-57-57-49 49q-33-25-71-37t-80-12q-82 0-151 49L78 98l-57 57 49 49q-24 33-36 72t-13 79q0 41 12 79t37 72l-49 49 57 56zm21-256q0-37 14-69t38-57 57-39 70-14q37 0 69 14t57 38 39 57 14 70q0 37-14 69t-38 57-57 39-70 14q-37 0-69-14t-57-38-39-57-14-70z"/><glyph unicode="¥" horiz-adv-x="556" d="M236 186H65v66h171v53l-17 28H65v66h114L-5 708H95l179-316 185 316h102L375 399h116v-66H337l-17-28v-53h171v-66H320V0h-84v186z"/><glyph unicode="¦" horiz-adv-x="222" d="M72 286h78V-18H72v304zm0 470h78V452H72v304z"/><glyph unicode="§" horiz-adv-x="556" d="M399 580q-13 32-39 46t-62 16q-39 0-69-19t-30-59q0-30 22-50t54-36 71-33 71-38 55-52 22-76q0-44-22-77t-61-54q31-21 48-51t17-70q0-43-18-75t-47-53-68-32-77-11q-66 0-121 28T62-23l87 41q14-42 47-60t77-18q19 0 37 5t32 15 23 27 9 40q0 26-22 45t-54 35-71 34-71 37-55 48-22 67q0 60 27 95t71 56q-36 20-58 49t-22 69q0 40 18 71t46 51 65 31 74 11q27 0 54-5t52-18 45-31 32-46l-84-46zM243 400q-14-5-27-12t-23-16-17-22-7-29q0-23 9-39t24-27 31-19 34-17l77-37q23 14 41 38t19 50q0 18-7 32t-20 25-26 19-29 16l-79 38z"/><glyph unicode="¨" horiz-adv-x="240" d="M18 714q23 0 42-16t20-41q0-27-17-45t-45-18q-27 0-44 18t-18 45q0 25 19 41t43 16zm204 0q23 0 42-16t20-41q0-27-17-45t-45-18q-27 0-44 18t-18 45q0 25 19 41t43 16z"/><glyph unicode="©" horiz-adv-x="800" d="M28 354q0 77 29 144t80 118 118 80 145 30q77 0 144-29t118-80 80-118 30-145q0-77-29-144T663 92 545 12 400-18q-77 0-144 29T138 91 58 209 28 354zm561-68q-16-72-65-114t-121-43q-52 0-93 16t-70 47-44 72-15 93q0 51 14 93t42 72 69 46 94 17q75 0 126-38t63-115h-77q-10 37-35 59t-76 22q-72 0-107-41t-35-113q0-33 9-61t28-50 46-34 61-13q48 0 74 23t35 62h77zM94 354q0-63 24-119t65-97 98-66 119-24q63 0 119 24t97 65 66 98 24 119q0 63-24 119t-65 97-98 66-119 24q-63 0-119-24t-97-65-66-98-24-119z"/><glyph unicode="ª" horiz-adv-x="337" d="M242 425v44l-2 1q-14-29-39-40t-61-11q-20 0-39 5t-34 16-24 27-9 38q0 37 20 58t50 31 64 12 62 2h12v10q0 20-17 34t-51 14q-25 0-48-8t-41-25l-35 45q24 21 57 31t66 11q43 0 70-8t41-22 19-32 5-37V425h-66zm-2 135q-21 0-45-1t-46-5-35-15-14-30q0-21 18-28t42-8q42 0 62 19t20 49v19h-2z"/><glyph unicode="«" horiz-adv-x="500" d="M47 243l145 216 62-41-117-175L255 68l-62-41L47 243zm198 0l145 216 62-41-117-175L453 68l-62-41-146 216z"/><glyph unicode="¬" horiz-adv-x="666" d="M600 141h-78v201H66v78h534V141z"/><glyph unicode="­" horiz-adv-x="316" d="M281 200H35v84h246v-84z"/><glyph unicode="®" horiz-adv-x="800" d="M257 569h164q77 0 113-33t37-95q0-56-29-84t-73-33l111-180h-82L392 318h-57V144h-78v425zm78-185h57q18 0 36 1t32 8 24 18 9 33q0 21-9 33t-23 18-33 7-36 1h-57V384zM28 354q0 77 29 144t80 118 118 80 145 30q77 0 144-29t118-80 80-118 30-145q0-77-29-144T663 92 545 12 400-18q-77 0-144 29T138 91 58 209 28 354zm66 0q0-63 24-119t65-97 98-66 119-24q63 0 119 24t97 65 66 98 24 119q0 63-24 119t-65 97-98 66-119 24q-63 0-119-24t-97-65-66-98-24-119z"/><glyph unicode="¯" horiz-adv-x="240" d="M264 600H-24v66h288v-66z"/><glyph unicode="°" horiz-adv-x="400" d="M51 571q0 31 11 58t32 47 48 32 58 12q31 0 58-12t47-32 32-47 12-58q0-31-12-58t-32-47-47-32-58-12q-31 0-58 11t-47 32-32 48-12 58zm66 0q0-35 24-59t59-24q35 0 59 24t24 59q0 35-24 59t-59 24q-35 0-59-24t-24-59z"/><glyph unicode="±" horiz-adv-x="666" d="M66 393h228v163h78V393h228v-78H372V165h-78v150H66v78zm0-264h534V51H66v78z"/><glyph unicode="²" horiz-adv-x="361" d="M26 365l179 160q15 14 30 32t15 41q0 26-19 41t-46 15q-29 0-47-16t-21-43l-84 6q5 58 47 88t105 31q31 0 58-7t47-23 32-37 12-53q0-40-20-69t-51-55L122 355h213v-66H26v76z"/><glyph unicode="³" horiz-adv-x="361" d="M140 543h18q17 0 33 1t29 8 20 17 8 31q0 24-18 39t-47 15q-24 0-42-11t-27-34l-83 20q15 48 56 69t92 22q30 0 56-7t47-21 32-35 12-49q0-35-21-61t-57-35v-2q44-5 66-34t23-69q0-30-12-53t-34-39-50-24-59-8q-57 0-100 23t-58 76l83 20q8-25 25-39t50-14q31 0 54 17t23 47q0 21-9 33t-24 20-33 9-36 2h-17v66z"/><glyph unicode="´" horiz-adv-x="240" d="M158 708h128L137 564H54l104 144z"/><glyph unicode="µ" horiz-adv-x="556" d="M68 474h90V194q0-33 9-56t24-38 34-21 41-7q28 0 52 9t42 28 28 50 10 71v244h90V0h-90v73h-2q-17-38-59-61t-97-24q-46 0-82 18v-234H68v702z"/><glyph unicode="¶" horiz-adv-x="600" d="M260 318q-46 0-84 14t-66 39-43 59-16 73q0 98 61 151t167 54h249v-834h-78v768H338v-768h-78v444z"/><glyph unicode="·" horiz-adv-x="278" d="M73 303q0 27 19 46t47 20q27 0 46-19t20-47q0-27-19-46t-47-20q-27 0-46 19t-20 47z"/><glyph unicode="¸" horiz-adv-x="240" d="M24-165q37-15 78-15 9 0 19 2t20 6 16 13 6 21q0 19-9 28t-24 11-30 1-31-7L48-87l61 87h49l-44-61h29q17 0 33-4t30-13 21-22 8-33q0-27-11-45t-30-29-40-16-44-5q-27 0-53 5T5-205l19 40z"/><glyph unicode="¹" horiz-adv-x="361" d="M154 648l-85-72-42 46 128 98h71V289h-72v359z"/><glyph unicode="º" horiz-adv-x="386" d="M193 720q75 0 119-41t45-110q0-69-44-109t-120-41q-75 0-119 40T29 569q0 69 44 110t120 41zm0-60q-45 0-68-24t-24-67q0-42 23-66t69-24q45 0 68 24t24 66q0 42-23 66t-69 25z"/><glyph unicode="»" horiz-adv-x="500" d="M453 243L308 27l-62 41 117 175-118 175 62 41 146-216zm-198 0L110 27 48 68l117 175L47 418l62 41 146-216z"/><glyph unicode="¼" horiz-adv-x="834" d="M160 648l-85-72-42 46 128 98h71V289h-72v359zM673 94H477v58l183 279h79V160h62V94h-62V0h-66v94zm-6 253h-2L549 160h118v187zm-76 393l60-32L212-32 152 0l439 740z"/><glyph unicode="½" horiz-adv-x="834" d="M158 648l-85-72-42 46 128 98h71V289h-72v359zM494 76l179 160q15 14 30 32t15 41q0 26-19 41t-46 15q-29 0-47-16t-21-43l-84 6q5 58 47 88t105 31q31 0 58-7t47-23 32-37 12-53q0-40-20-69t-51-55L590 66h213V0H494v76zm85 664l60-32L200-32 140 0l439 740z"/><glyph unicode="¾" horiz-adv-x="834" d="M139 543h18q17 0 33 1t29 8 20 17 8 31q0 24-18 39t-47 15q-24 0-42-11t-27-34l-83 20q15 48 56 69t92 22q30 0 56-7t47-21 32-35 12-49q0-35-21-61t-57-35v-2q44-5 66-34t23-69q0-30-12-53t-34-39-50-24-59-8q-57 0-100 23t-58 76l83 20q8-25 25-39t50-14q31 0 54 17t23 47q0 21-9 33t-24 20-33 9-36 2h-17v66zM693 94H497v58l183 279h79V160h62V94h-62V0h-66v94zm0 253h-2L575 160h118v187zm-62 393l60-32L252-32 192 0l439 740z"/><glyph unicode="¿" horiz-adv-x="500" d="M290 288v-61q0-27-4-45t-12-32-22-28-33-33l-32-30q-16-15-29-32T137-9t-9-41q0-23 8-42t23-34 33-22 42-8q49 0 79 31t37 81l102-10q-13-87-72-136t-148-50q-42 0-78 12t-64 36-42 58-16 79q0 38 11 66t31 54l60 62 10 9q16 15 25 25t15 22 8 26 2 35v44h96zM177 426q0 27 19 46t47 20q27 0 46-19t20-47q0-27-19-46t-47-20q-27 0-46 19t-20 47z"/><glyph unicode="À" horiz-adv-x="704" d="M313 708h87L703 0H591l-71 175H183L113 0H1l312 708zm172-449L353 584h-2L217 259h268zm-67 489h-83L186 892h128l104-144z"/><glyph unicode="Á" horiz-adv-x="704" d="M313 708h87L703 0H591l-71 175H183L113 0H1l312 708zm172-449L353 584h-2L217 259h268zm-95 633h128L369 748h-83l104 144z"/><glyph unicode="Â" horiz-adv-x="704" d="M313 708h87L703 0H591l-71 175H183L113 0H1l312 708zm172-449L353 584h-2L217 259h268zm-59 489l-74 96-74-96h-91l112 144h106l112-144h-91z"/><glyph unicode="Ã" horiz-adv-x="704" d="M313 708h87L703 0H591l-71 175H183L113 0H1l312 708zm172-449L353 584h-2L217 259h268zM184 760q3 19 11 38t20 33 30 24 40 9q23 0 43-7t41-16q15-6 26-11t28-6q20 0 32 13t17 31h48q-3-19-10-37t-18-34-27-24-39-9q-21 0-41 6t-40 15q-15 6-32 12t-34 7q-19 0-30-13t-17-31h-48z"/><glyph unicode="Ä" horiz-adv-x="704" d="M313 708h87L703 0H591l-71 175H183L113 0H1l312 708zm172-449L353 584h-2L217 259h268zM250 898q23 0 42-16t20-41q0-27-17-45t-45-18q-27 0-44 18t-18 45q0 25 19 41t43 16zm204 0q23 0 42-16t20-41q0-27-17-45t-45-18q-27 0-44 18t-18 45q0 25 19 41t43 16z"/><glyph unicode="Å" horiz-adv-x="704" d="M313 708h87L703 0H591l-71 175H183L113 0H1l312 708zm172-449L353 584h-2L217 259h268zM250 825q0 21 8 39t23 31 32 21 39 8q21 0 39-7t33-21 22-31 8-39q0-21-8-39t-22-31-32-21-40-8q-20 0-38 7t-33 21-22 31-9 39zm162 0q0 25-18 41t-42 16q-24 0-42-16t-18-41q0-24 18-40t42-16q23 0 41 16t19 40z"/><glyph unicode="Æ" horiz-adv-x="963" d="M450 708h456v-90H611V407h277v-90H611V90h307V0H515v172H211L110 0H-8l458 708zm65-446v356h-19L263 262h252z"/><glyph unicode="Ç" horiz-adv-x="704" d="M276-165q37-15 78-15 9 0 19 2t20 6 16 13 6 21q0 19-9 28t-24 11-30 1-31-7l-21 18 51 74q-49 7-92 27-67 32-114 84T72 215 47 348q0 82 27 151t75 120 117 79 150 28q70 0 137-27t111-83l-80-61q-30 39-76 60t-95 21q-60 0-108-22t-83-62-54-91-19-113q0-56 18-106t52-88 83-60 111-22q61 0 107 25t78 70l81-61q-8-11-28-31t-53-41-79-36-108-16h-14l-31-43h29q17 0 33-4t30-13 21-22 8-33q0-27-11-45t-30-29-40-16-44-5q-27 0-53 5t-52 18l19 40z"/><glyph unicode="È" horiz-adv-x="611" d="M91 708h457v-90H187V407h336v-90H187V90h379V0H91v708zm281 40h-83L140 892h128l104-144z"/><glyph unicode="É" horiz-adv-x="611" d="M91 708h457v-90H187V407h336v-90H187V90h379V0H91v708zm253 184h128L323 748h-83l104 144z"/><glyph unicode="Ê" horiz-adv-x="611" d="M91 708h457v-90H187V407h336v-90H187V90h379V0H91v708zm289 40l-74 96-74-96h-91l112 144h106l112-144h-91z"/><glyph unicode="Ë" horiz-adv-x="611" d="M91 708h457v-90H187V407h336v-90H187V90h379V0H91v708zm113 190q23 0 42-16t20-41q0-27-17-45t-45-18q-27 0-44 18t-18 45q0 25 19 41t43 16zm204 0q23 0 42-16t20-41q0-27-17-45t-45-18q-27 0-44 18t-18 45q0 25 19 41t43 16z"/><glyph unicode="Ì" horiz-adv-x="278" d="M91 708h96V0H91v708zm114 40h-83L-27 892h128l104-144z"/><glyph unicode="Í" horiz-adv-x="278" d="M91 708h96V0H91v708zm86 184h128L156 748H73l104 144z"/><glyph unicode="Î" horiz-adv-x="278" d="M91 708h96V0H91v708zm122 40l-74 96-74-96h-91L86 892h106l112-144h-91z"/><glyph unicode="Ï" horiz-adv-x="278" d="M91 708h96V0H91v708zM37 898q23 0 42-16t20-41q0-27-17-45t-45-18q-27 0-44 18t-18 45q0 25 19 41t43 16zm204 0q23 0 42-16t20-41q0-27-17-45t-45-18q-27 0-44 18t-18 45q0 25 19 41t43 16z"/><glyph unicode="Ð" horiz-adv-x="741" d="M75 336H3v66h72v306h247q75 0 131-17t98-45 69-66 44-76 23-78 7-72q0-68-25-131t-74-113-121-80T306 0H75v336zm96-246h121q61 0 115 16t96 50 65 82 24 116q0 34-11 79t-41 87-85 69-140 29H171V402h234v-66H171V90z"/><glyph unicode="Ñ" horiz-adv-x="796" d="M91 708h126l390-582h2v582h96V0H583L189 582h-2V0H91v708zm139 52q3 19 11 38t20 33 30 24 40 9q23 0 43-7t41-16q15-6 26-11t28-6q20 0 32 13t17 31h48q-3-19-10-37t-18-34-27-24-39-9q-21 0-41 6t-40 15q-15 6-32 12t-34 7q-19 0-30-13t-17-31h-48z"/><glyph unicode="Ò" horiz-adv-x="832" d="M416-18q-81 0-149 28T151 89 75 207 47 354q0 79 27 147t76 118 117 78 149 29q81 0 149-28t116-79 76-118 28-147q0-79-27-147T682 89 565 11 416-18zm0 90q61 0 110 22t84 61 54 89 19 110q0 58-19 109t-54 90-84 60-110 23q-61 0-110-22t-84-61-54-89-19-110q0-58 19-109t54-90 84-60 110-23zm66 676h-83L250 892h128l104-144z"/><glyph unicode="Ó" horiz-adv-x="832" d="M416-18q-81 0-149 28T151 89 75 207 47 354q0 79 27 147t76 118 117 78 149 29q81 0 149-28t116-79 76-118 28-147q0-79-27-147T682 89 565 11 416-18zm0 90q61 0 110 22t84 61 54 89 19 110q0 58-19 109t-54 90-84 60-110 23q-61 0-110-22t-84-61-54-89-19-110q0-58 19-109t54-90 84-60 110-23zm38 820h128L433 748h-83l104 144z"/><glyph unicode="Ô" horiz-adv-x="832" d="M416-18q-81 0-149 28T151 89 75 207 47 354q0 79 27 147t76 118 117 78 149 29q81 0 149-28t116-79 76-118 28-147q0-79-27-147T682 89 565 11 416-18zm0 90q61 0 110 22t84 61 54 89 19 110q0 58-19 109t-54 90-84 60-110 23q-61 0-110-22t-84-61-54-89-19-110q0-58 19-109t54-90 84-60 110-23zm74 676l-74 96-74-96h-91l112 144h106l112-144h-91z"/><glyph unicode="Õ" horiz-adv-x="832" d="M416-18q-81 0-149 28T151 89 75 207 47 354q0 79 27 147t76 118 117 78 149 29q81 0 149-28t116-79 76-118 28-147q0-79-27-147T682 89 565 11 416-18zm0 90q61 0 110 22t84 61 54 89 19 110q0 58-19 109t-54 90-84 60-110 23q-61 0-110-22t-84-61-54-89-19-110q0-58 19-109t54-90 84-60 110-23zM248 760q3 19 11 38t20 33 30 24 40 9q23 0 43-7t41-16q15-6 26-11t28-6q20 0 32 13t17 31h48q-3-19-10-37t-18-34-27-24-39-9q-21 0-41 6t-40 15q-15 6-32 12t-34 7q-19 0-30-13t-17-31h-48z"/><glyph unicode="Ö" horiz-adv-x="832" d="M416-18q-81 0-149 28T151 89 75 207 47 354q0 79 27 147t76 118 117 78 149 29q81 0 149-28t116-79 76-118 28-147q0-79-27-147T682 89 565 11 416-18zm0 90q61 0 110 22t84 61 54 89 19 110q0 58-19 109t-54 90-84 60-110 23q-61 0-110-22t-84-61-54-89-19-110q0-58 19-109t54-90 84-60 110-23zM314 898q23 0 42-16t20-41q0-27-17-45t-45-18q-27 0-44 18t-18 45q0 25 19 41t43 16zm204 0q23 0 42-16t20-41q0-27-17-45t-45-18q-27 0-44 18t-18 45q0 25 19 41t43 16z"/><glyph unicode="×" horiz-adv-x="666" d="M278 303L66 515l55 55 212-212 213 212 54-55-212-212L600 91l-56-55-211 212L122 36 68 92l210 211z"/><glyph unicode="Ø" horiz-adv-x="832" d="M246 131q34-28 76-43t94-16q61 0 110 22t84 61 54 89 19 110q0 54-16 101t-46 85L246 131zm335 449q-33 26-74 41t-91 15q-61 0-110-22t-84-61-54-89-19-110q0-52 15-98t43-83l374 407zM55 8l85 93q-45 50-69 114T47 354q0 79 27 147t76 118 117 78 149 29q67 0 125-20t105-56l83 90 42-38-83-90q46-49 71-115t26-143q0-79-27-147T682 89 565 11 416-18q-69 0-128 20T182 61L98-30 55 8z"/><glyph unicode="Ù" horiz-adv-x="704" d="M174 708V274q0-33 9-68t30-66 55-49 84-19q50 0 84 19t55 49 30 65 9 69v434h96V259q0-62-21-112t-58-88-87-57-108-20q-58 0-108 20t-87 57-58 87-21 113v449h96zm244 40h-83L186 892h128l104-144z"/><glyph unicode="Ú" horiz-adv-x="704" d="M174 708V274q0-33 9-68t30-66 55-49 84-19q50 0 84 19t55 49 30 65 9 69v434h96V259q0-62-21-112t-58-88-87-57-108-20q-58 0-108 20t-87 57-58 87-21 113v449h96zm216 184h128L369 748h-83l104 144z"/><glyph unicode="Û" horiz-adv-x="704" d="M174 708V274q0-33 9-68t30-66 55-49 84-19q50 0 84 19t55 49 30 65 9 69v434h96V259q0-62-21-112t-58-88-87-57-108-20q-58 0-108 20t-87 57-58 87-21 113v449h96zm252 40l-74 96-74-96h-91l112 144h106l112-144h-91z"/><glyph unicode="Ü" horiz-adv-x="704" d="M174 708V274q0-33 9-68t30-66 55-49 84-19q50 0 84 19t55 49 30 65 9 69v434h96V259q0-62-21-112t-58-88-87-57-108-20q-58 0-108 20t-87 57-58 87-21 113v449h96zm76 190q23 0 42-16t20-41q0-27-17-45t-45-18q-27 0-44 18t-18 45q0 25 19 41t43 16zm204 0q23 0 42-16t20-41q0-27-17-45t-45-18q-27 0-44 18t-18 45q0 25 19 41t43 16z"/><glyph unicode="Ý" horiz-adv-x="612" d="M258 302L-10 708h123l193-311 199 311h117L354 302V0h-96v302zm86 590h128L323 748h-83l104 144z"/><glyph unicode="Þ" horiz-adv-x="593" d="M91 708h96V563h153q68 0 112-18t69-47 36-64 10-69q0-33-10-68t-35-64-70-47-112-19H187V0H91v708zm96-457h126q28 0 55 4t49 17 35 34 13 59q0 36-13 58t-34 35-49 16-56 5H187V251z"/><glyph unicode="ß" horiz-adv-x="611" d="M68 509q0 53 9 100t33 82 69 56 114 21q42 0 78-11t65-35 44-57 16-78q0-62-30-101t-81-54v-2q30-5 60-19t54-39 40-63 16-89q0-54-18-97t-50-73-77-46-97-16q-37 0-71 9v81q25-6 53-6 74 0 119 40t45 116q0 40-13 69t-37 48-55 28-69 10h-14v84h16q51 0 82 29t31 80q0 30-10 51t-26 33-36 18-40 6q-38 0-63-12t-40-35-21-52-6-65V0H68v509z"/><glyph unicode="à" horiz-adv-x="519" d="M70 416q38 35 88 52t100 18q52 0 89-13t62-35 35-50 12-60V86q0-25 1-46t3-40h-80q-3 36-3 72h-2q-30-46-71-65t-95-19q-33 0-63 9T94 24 58 68t-13 62q0 46 20 77t56 50 83 28 102 9h66v20q0 18-7 36t-21 32-35 23-50 9q-26 0-45-5t-36-12-29-18-25-19l-54 56zm254-188q-32 0-65-3t-61-14-45-28-18-46q0-41 27-59t75-18q37 0 63 12t42 33 23 44 7 49v30h-48zm2 336h-83L94 708h128l104-144z"/><glyph unicode="á" horiz-adv-x="519" d="M70 416q38 35 88 52t100 18q52 0 89-13t62-35 35-50 12-60V86q0-25 1-46t3-40h-80q-3 36-3 72h-2q-30-46-71-65t-95-19q-33 0-63 9T94 24 58 68t-13 62q0 46 20 77t56 50 83 28 102 9h66v20q0 18-7 36t-21 32-35 23-50 9q-26 0-45-5t-36-12-29-18-25-19l-54 56zm254-188q-32 0-65-3t-61-14-45-28-18-46q0-41 27-59t75-18q37 0 63 12t42 33 23 44 7 49v30h-48zm-26 480h128L277 564h-83l104 144z"/><glyph unicode="â" horiz-adv-x="519" d="M70 416q38 35 88 52t100 18q52 0 89-13t62-35 35-50 12-60V86q0-25 1-46t3-40h-80q-3 36-3 72h-2q-30-46-71-65t-95-19q-33 0-63 9T94 24 58 68t-13 62q0 46 20 77t56 50 83 28 102 9h66v20q0 18-7 36t-21 32-35 23-50 9q-26 0-45-5t-36-12-29-18-25-19l-54 56zm254-188q-32 0-65-3t-61-14-45-28-18-46q0-41 27-59t75-18q37 0 63 12t42 33 23 44 7 49v30h-48zm10 336l-74 96-74-96H95l112 144h106l112-144h-91z"/><glyph unicode="ã" horiz-adv-x="519" d="M70 416q38 35 88 52t100 18q52 0 89-13t62-35 35-50 12-60V86q0-25 1-46t3-40h-80q-3 36-3 72h-2q-30-46-71-65t-95-19q-33 0-63 9T94 24 58 68t-13 62q0 46 20 77t56 50 83 28 102 9h66v20q0 18-7 36t-21 32-35 23-50 9q-26 0-45-5t-36-12-29-18-25-19l-54 56zm254-188q-32 0-65-3t-61-14-45-28-18-46q0-41 27-59t75-18q37 0 63 12t42 33 23 44 7 49v30h-48zM92 576q3 19 11 38t20 33 30 24 40 9q23 0 43-7t41-16q15-6 26-11t28-6q20 0 32 13t17 31h48q-3-19-10-37t-18-34-27-24-39-9q-21 0-41 6t-40 15q-15 6-32 12t-34 7q-19 0-30-13t-17-31H92z"/><glyph unicode="ä" horiz-adv-x="519" d="M70 416q38 35 88 52t100 18q52 0 89-13t62-35 35-50 12-60V86q0-25 1-46t3-40h-80q-3 36-3 72h-2q-30-46-71-65t-95-19q-33 0-63 9T94 24 58 68t-13 62q0 46 20 77t56 50 83 28 102 9h66v20q0 18-7 36t-21 32-35 23-50 9q-26 0-45-5t-36-12-29-18-25-19l-54 56zm254-188q-32 0-65-3t-61-14-45-28-18-46q0-41 27-59t75-18q37 0 63 12t42 33 23 44 7 49v30h-48zM158 714q23 0 42-16t20-41q0-27-17-45t-45-18q-27 0-44 18t-18 45q0 25 19 41t43 16zm204 0q23 0 42-16t20-41q0-27-17-45t-45-18q-27 0-44 18t-18 45q0 25 19 41t43 16z"/><glyph unicode="å" horiz-adv-x="519" d="M70 416q38 35 88 52t100 18q52 0 89-13t62-35 35-50 12-60V86q0-25 1-46t3-40h-80q-3 36-3 72h-2q-30-46-71-65t-95-19q-33 0-63 9T94 24 58 68t-13 62q0 46 20 77t56 50 83 28 102 9h66v20q0 18-7 36t-21 32-35 23-50 9q-26 0-45-5t-36-12-29-18-25-19l-54 56zm254-188q-32 0-65-3t-61-14-45-28-18-46q0-41 27-59t75-18q37 0 63 12t42 33 23 44 7 49v30h-48zM158 651q0 21 8 39t23 31 32 21 39 8q21 0 39-7t33-21 22-31 8-39q0-21-8-39t-22-31-32-21-40-8q-20 0-38 7t-33 21-22 31-9 39zm162 0q0 25-18 41t-42 16q-24 0-42-16t-18-41q0-24 18-40t42-16q23 0 41 16t19 40z"/><glyph unicode="æ" horiz-adv-x="852" d="M813 204H460q0-29 9-55t28-45 45-32 61-12q43 0 74 21t49 54l73-55q-42-48-87-73T601-18q-57 0-105 21t-80 76q-33-45-80-71T222-18q-48 0-82 13T83 30 50 79t-11 56q0 42 17 69t46 43 63 22 71 7h140v15q0 51-30 87t-89 36q-42 0-72-14t-62-40l-56 57q38 34 88 51t101 18q49 0 95-17t75-59q12 13 27 26t35 25 45 18 59 7q68 0 111-26t67-63 34-79 9-72v-42zm-579 0q-52 0-75-17t-24-52q0-35 29-58t70-23q28 0 53 9t45 27 32 43 12 57v14H234zm483 72q-1 27-8 51t-22 42-38 28-58 11q-32 0-56-10t-41-29-25-42-9-51h257z"/><glyph unicode="ç" horiz-adv-x="482" d="M175-165q37-15 78-15 9 0 19 2t20 6 16 13 6 21q0 19-9 28t-24 11-30 1-31-7l-21 18 54 78q-32 4-61 15-45 18-78 50t-51 78-18 101q0 55 18 101t50 79 78 51 102 19q52 0 99-18t83-57l-68-62q-25 26-52 39t-66 14q-37 0-64-13t-46-37-28-54-10-64q0-33 11-62t31-52 48-34 63-13q38 0 65 13t50 40l64-64q-35-39-82-56-43-16-91-17l-35-49h29q17 0 33-4t30-13 21-22 8-33q0-27-11-45t-30-29-40-16-44-5q-27 0-53 5t-52 18l19 40z"/><glyph unicode="è" horiz-adv-x="556" d="M136 204q0-31 13-56t36-44 51-28 60-10q42 0 73 19t57 52l68-52q-75-97-210-97-56 0-101 19t-77 52-49 79-17 99q0 53 18 98t51 79 78 53 98 19q63 0 106-22t72-57 40-80 13-91v-32H136zm284 72q-1 30-9 55t-26 43-42 29-60 11q-33 0-60-12t-47-33-29-44-11-49h284zm-76 288h-83L112 708h128l104-144z"/><glyph unicode="é" horiz-adv-x="556" d="M136 204q0-31 13-56t36-44 51-28 60-10q42 0 73 19t57 52l68-52q-75-97-210-97-56 0-101 19t-77 52-49 79-17 99q0 53 18 98t51 79 78 53 98 19q63 0 106-22t72-57 40-80 13-91v-32H136zm284 72q-1 30-9 55t-26 43-42 29-60 11q-33 0-60-12t-47-33-29-44-11-49h284zM316 708h128L295 564h-83l104 144z"/><glyph unicode="ê" horiz-adv-x="556" d="M136 204q0-31 13-56t36-44 51-28 60-10q42 0 73 19t57 52l68-52q-75-97-210-97-56 0-101 19t-77 52-49 79-17 99q0 53 18 98t51 79 78 53 98 19q63 0 106-22t72-57 40-80 13-91v-32H136zm284 72q-1 30-9 55t-26 43-42 29-60 11q-33 0-60-12t-47-33-29-44-11-49h284zm-68 288l-74 96-74-96h-91l112 144h106l112-144h-91z"/><glyph unicode="ë" horiz-adv-x="556" d="M136 204q0-31 13-56t36-44 51-28 60-10q42 0 73 19t57 52l68-52q-75-97-210-97-56 0-101 19t-77 52-49 79-17 99q0 53 18 98t51 79 78 53 98 19q63 0 106-22t72-57 40-80 13-91v-32H136zm284 72q-1 30-9 55t-26 43-42 29-60 11q-33 0-60-12t-47-33-29-44-11-49h284zM176 714q23 0 42-16t20-41q0-27-17-45t-45-18q-27 0-44 18t-18 45q0 25 19 41t43 16zm204 0q23 0 42-16t20-41q0-27-17-45t-45-18q-27 0-44 18t-18 45q0 25 19 41t43 16z"/><glyph unicode="ì" horiz-adv-x="240" d="M75 474h90V0H75v474zm111 90h-83L-46 708H82l104-144z"/><glyph unicode="í" horiz-adv-x="240" d="M75 474h90V0H75v474zm83 234h128L137 564H54l104 144z"/><glyph unicode="î" horiz-adv-x="240" d="M75 474h90V0H75v474zm119 90l-74 96-74-96h-91L67 708h106l112-144h-91z"/><glyph unicode="ï" horiz-adv-x="240" d="M75 474h90V0H75v474zM18 714q23 0 42-16t20-41q0-27-17-45t-45-18q-27 0-44 18t-18 45q0 25 19 41t43 16zm204 0q23 0 42-16t20-41q0-27-17-45t-45-18q-27 0-44 18t-18 45q0 25 19 41t43 16z"/><glyph unicode="ð" horiz-adv-x="594" d="M475 712l-112-55q39-41 72-85t59-92 40-100 15-111q0-63-17-115t-49-89-79-57-107-20q-53 0-99 19t-80 53-53 79-20 98q0 52 19 97t54 79 80 53 99 20q33 0 67-11t58-39l2 2q-28 50-65 94t-79 86l-107-52-47 46 106 53-85 71 79 46 89-78 108 52 52-44zM141 237q0-36 11-66t31-52 49-34 65-13q36 0 65 12t49 34 31 52 11 67q0 36-11 66t-31 52-49 34-65 13q-36 0-65-12t-49-34-31-52-11-67z"/><glyph unicode="ñ" horiz-adv-x="556" d="M68 474h90v-73h2q17 38 59 61t97 24q34 0 65-10t55-33 38-56 14-82V0h-90v280q0 33-9 56t-24 38-34 21-41 7q-28 0-52-9t-42-28-28-50-10-71V0H68v474zm42 102q3 19 11 38t20 33 30 24 40 9q23 0 43-7t41-16q15-6 26-11t28-6q20 0 32 13t17 31h48q-3-19-10-37t-18-34-27-24-39-9q-21 0-41 6t-40 15q-15 6-32 12t-34 7q-19 0-30-13t-17-31h-48z"/><glyph unicode="ò" horiz-adv-x="594" d="M141 237q0-36 11-66t31-52 49-34 65-13q36 0 65 12t49 34 31 52 11 67q0 36-11 66t-31 52-49 34-65 13q-36 0-65-12t-49-34-31-52-11-67zm-96 0q0 52 19 97t54 79 80 53 99 20q53 0 99-19t80-54 53-79 20-97q0-52-19-97t-54-79-80-53-99-20q-53 0-99 19t-80 53-53 79-20 98zm318 327h-83L131 708h128l104-144z"/><glyph unicode="ó" horiz-adv-x="594" d="M141 237q0-36 11-66t31-52 49-34 65-13q36 0 65 12t49 34 31 52 11 67q0 36-11 66t-31 52-49 34-65 13q-36 0-65-12t-49-34-31-52-11-67zm-96 0q0 52 19 97t54 79 80 53 99 20q53 0 99-19t80-54 53-79 20-97q0-52-19-97t-54-79-80-53-99-20q-53 0-99 19t-80 53-53 79-20 98zm291 471h128L315 564h-83l104 144z"/><glyph unicode="ô" horiz-adv-x="594" d="M141 237q0-36 11-66t31-52 49-34 65-13q36 0 65 12t49 34 31 52 11 67q0 36-11 66t-31 52-49 34-65 13q-36 0-65-12t-49-34-31-52-11-67zm-96 0q0 52 19 97t54 79 80 53 99 20q53 0 99-19t80-54 53-79 20-97q0-52-19-97t-54-79-80-53-99-20q-53 0-99 19t-80 53-53 79-20 98zm326 327l-74 96-74-96h-91l112 144h106l112-144h-91z"/><glyph unicode="õ" horiz-adv-x="594" d="M141 237q0-36 11-66t31-52 49-34 65-13q36 0 65 12t49 34 31 52 11 67q0 36-11 66t-31 52-49 34-65 13q-36 0-65-12t-49-34-31-52-11-67zm-96 0q0 52 19 97t54 79 80 53 99 20q53 0 99-19t80-54 53-79 20-97q0-52-19-97t-54-79-80-53-99-20q-53 0-99 19t-80 53-53 79-20 98zm84 339q3 19 11 38t20 33 30 24 40 9q23 0 43-7t41-16q15-6 26-11t28-6q20 0 32 13t17 31h48q-3-19-10-37t-18-34-27-24-39-9q-21 0-41 6t-40 15q-15 6-32 12t-34 7q-19 0-30-13t-17-31h-48z"/><glyph unicode="ö" horiz-adv-x="594" d="M141 237q0-36 11-66t31-52 49-34 65-13q36 0 65 12t49 34 31 52 11 67q0 36-11 66t-31 52-49 34-65 13q-36 0-65-12t-49-34-31-52-11-67zm-96 0q0 52 19 97t54 79 80 53 99 20q53 0 99-19t80-54 53-79 20-97q0-52-19-97t-54-79-80-53-99-20q-53 0-99 19t-80 53-53 79-20 98zm150 477q23 0 42-16t20-41q0-27-17-45t-45-18q-27 0-44 18t-18 45q0 25 19 41t43 16zm204 0q23 0 42-16t20-41q0-27-17-45t-45-18q-27 0-44 18t-18 45q0 25 19 41t43 16z"/><glyph unicode="÷" horiz-adv-x="666" d="M600 341v-78H66v78h534zM267 470q0 27 19 46t47 20q27 0 46-19t20-47q0-27-19-46t-47-20q-27 0-46 19t-20 47zm0-336q0 27 19 46t47 20q27 0 46-19t20-47q0-27-19-46t-47-20q-27 0-46 19t-20 47z"/><glyph unicode="ø" horiz-adv-x="594" d="M399 367q-20 17-45 26t-57 9q-36 0-65-12t-49-34-31-52-11-67q0-62 30-102l228 232zM41 4l67 68q-29 32-46 74t-17 91q0 52 19 97t54 79 80 53 99 20q48 0 89-15t73-43l75 75 36-36-75-76q26-32 40-71t14-83q0-52-19-97t-54-79-80-53-99-20q-42 0-80 13t-70 36L78-32 41 4zm167 95q36-27 89-27 36 0 65 12t49 34 31 52 11 67q0 52-22 89L208 99z"/><glyph unicode="ù" horiz-adv-x="556" d="M488 0h-90v73h-2q-17-38-59-61t-97-24q-35 0-66 10t-54 33-38 56-14 82v305h90V194q0-33 9-56t24-38 34-21 41-7q28 0 52 9t42 28 28 50 10 71v244h90V0zM344 564h-83L112 708h128l104-144z"/><glyph unicode="ú" horiz-adv-x="556" d="M488 0h-90v73h-2q-17-38-59-61t-97-24q-35 0-66 10t-54 33-38 56-14 82v305h90V194q0-33 9-56t24-38 34-21 41-7q28 0 52 9t42 28 28 50 10 71v244h90V0zM316 708h128L295 564h-83l104 144z"/><glyph unicode="û" horiz-adv-x="556" d="M488 0h-90v73h-2q-17-38-59-61t-97-24q-35 0-66 10t-54 33-38 56-14 82v305h90V194q0-33 9-56t24-38 34-21 41-7q28 0 52 9t42 28 28 50 10 71v244h90V0zM352 564l-74 96-74-96h-91l112 144h106l112-144h-91z"/><glyph unicode="ü" horiz-adv-x="556" d="M488 0h-90v73h-2q-17-38-59-61t-97-24q-35 0-66 10t-54 33-38 56-14 82v305h90V194q0-33 9-56t24-38 34-21 41-7q28 0 52 9t42 28 28 50 10 71v244h90V0zM176 714q23 0 42-16t20-41q0-27-17-45t-45-18q-27 0-44 18t-18 45q0 25 19 41t43 16zm204 0q23 0 42-16t20-41q0-27-17-45t-45-18q-27 0-44 18t-18 45q0 25 19 41t43 16z"/><glyph unicode="ý" horiz-adv-x="500" d="M11 474h104l141-370h2l134 370h97L264-102q-12-31-25-56t-31-44-43-28-63-10q-20 0-40 2t-40 11l11 82q27-11 54-11 21 0 35 5t25 16 18 25 14 32l29 75L11 474zm277 234h128L267 564h-83l104 144z"/><glyph unicode="þ" horiz-adv-x="611" d="M68 756h90V406h2q24 37 69 58t96 22q55 0 99-19t76-52 49-79 17-99q0-53-17-98t-48-79-76-53-100-19q-48 0-93 21t-72 59h-2v-296H68v984zM314 72q36 0 65 12t49 34 31 52 11 67q0 36-11 66t-31 52-49 34-65 13q-36 0-65-12t-49-34-31-52-11-67q0-36 11-66t31-52 49-34 65-13z"/><glyph unicode="ÿ" horiz-adv-x="500" d="M11 474h104l141-370h2l134 370h97L264-102q-12-31-25-56t-31-44-43-28-63-10q-20 0-40 2t-40 11l11 82q27-11 54-11 21 0 35 5t25 16 18 25 14 32l29 75L11 474zm137 240q23 0 42-16t20-41q0-27-17-45t-45-18q-27 0-44 18t-18 45q0 25 19 41t43 16zm204 0q23 0 42-16t20-41q0-27-17-45t-45-18q-27 0-44 18t-18 45q0 25 19 41t43 16z"/><glyph unicode="ı" horiz-adv-x="240" d="M75 474h90V0H75v474z"/><glyph unicode="Œ" horiz-adv-x="981" d="M923 0H467q-98 0-174 26t-128 74-80 112-27 142q0 80 28 145t81 112 128 72 172 25h444v-90H617V407h276v-90H617V90h306V0zM521 618h-61q-74 0-130-21t-93-58-57-84-20-101q0-56 19-104t57-84 94-56 130-20h61v528z"/><glyph unicode="œ" horiz-adv-x="926" d="M868 86q-68-98-199-98-58 0-111 21t-83 71q-9-13-23-29t-37-30-56-23-79-10q-57 0-102 19t-76 52-47 79-16 99q0 54 18 99t50 79 78 52 100 19q62 0 109-22t83-69q12 16 29 32t39 29 52 21 67 9q51 0 92-17t70-49 45-75 16-97v-44H528q0-26 8-51t25-44 45-31 65-12q43 0 73 18t50 51l74-49zm-77 190q-1 25-9 50t-24 44-40 32-56 12q-32 0-57-13t-42-34-26-44-9-47h263zm-353-39q0 32-8 63t-27 55-46 38-69 15q-38 0-67-13t-48-37-28-54-10-67q0-35 9-66t28-54 46-37 62-14q46 0 76 14t49 39 25 55 8 63z"/><glyph unicode="Š" horiz-adv-x="556" d="M112 148q26-39 66-57t84-19q24 0 49 7t45 23 34 37 13 51q0 41-26 62t-64 36-84 28-84 38-65 64-26 110q0 31 13 66t43 64 74 48 110 20q58 0 111-16t93-65l-78-71q-18 28-51 45t-75 17q-40 0-66-10t-43-27-22-36-7-35q0-45 26-69t64-39 84-27 84-33 65-58 26-101q0-51-19-92t-53-69-78-43-96-15q-68 0-129 24T33 80l79 68zm1 744h87l78-96 74 96h91L331 748H225L113 892z"/><glyph unicode="š" horiz-adv-x="444" d="M320 355q-16 20-39 33t-58 14q-32 0-55-13t-24-40q0-21 13-34t32-21 40-12 36-7q29-7 54-17t44-26 29-39 11-56q0-40-17-68t-44-47-61-26-70-8q-59 0-103 18T28 72l68 56q22-22 49-39t66-17q17 0 34 3t31 11 22 19 9 27q0 20-12 33t-30 20-37 12-35 8q-29 7-55 16t-46 24-32 38-12 57q0 37 15 64t41 46 58 27 66 9q48 0 92-18t70-60l-70-53zM57 708h87l78-96 74 96h91L275 564H169L57 708z"/><glyph unicode="Ÿ" horiz-adv-x="612" d="M258 302L-10 708h123l193-311 199 311h117L354 302V0h-96v302zm-54 596q23 0 42-16t20-41q0-27-17-45t-45-18q-27 0-44 18t-18 45q0 25 19 41t43 16zm204 0q23 0 42-16t20-41q0-27-17-45t-45-18q-27 0-44 18t-18 45q0 25 19 41t43 16z"/><glyph unicode="Ž" horiz-adv-x="593" d="M32 90l403 528H44v90h511v-90L154 90h407V0H32v90zm100 802h87l78-96 74 96h91L350 748H244L132 892z"/><glyph unicode="ž" horiz-adv-x="463" d="M35 81l269 315H44v78h370v-80L143 78h285V0H35v81zm32 627h87l78-96 74 96h91L285 564H179L67 708z"/><glyph unicode="ƒ" horiz-adv-x="556" d="M449 353H315L242-15q-11-59-53-94T85-144q-29 0-52 7t-45 18l38 71q31-12 54-12 22 0 35 8t22 22 13 29 7 30l63 324H112v72h122l27 141q14 69 55 111t98 43q32 0 63-5t54-19l-40-75q-11 8-23 11t-35 4q-26 0-50-22t-35-78l-19-111h120v-72z"/><glyph unicode="ˆ" horiz-adv-x="240" d="M194 564l-74 96-74-96h-91L67 708h106l112-144h-91z"/><glyph unicode="ˇ" horiz-adv-x="240" d="M-45 708h87l78-96 74 96h91L173 564H67L-45 708z"/><glyph unicode="˚" horiz-adv-x="240" d="M18 651q0 21 8 39t23 31 32 21 39 8q21 0 39-7t33-21 22-31 8-39q0-21-8-39t-22-31-32-21-40-8q-20 0-38 7t-33 21-22 31-9 39zm162 0q0 25-18 41t-42 16q-24 0-42-16t-18-41q0-24 18-40t42-16q23 0 41 16t19 40z"/><glyph unicode="˜" horiz-adv-x="240" d="M-48 576q3 19 11 38t20 33 30 24 40 9q23 0 43-7t41-16q15-6 26-11t28-6q20 0 32 13t17 31h48q-3-19-10-37t-18-34-27-24-39-9q-21 0-41 6t-40 15q-15 6-32 12t-34 7q-19 0-30-13T0 576h-48z"/><glyph unicode="–" horiz-adv-x="500" d="M500 204H0v78h500v-78z"/><glyph unicode="—" horiz-adv-x="1000" d="M1000 204H0v78h1000v-78z"/><glyph unicode="‘" horiz-adv-x="278" d="M140 708h82l-69-246H56l84 246z"/><glyph unicode="’" horiz-adv-x="278" d="M138 462H56l69 246h97l-84-246z"/><glyph unicode="‚" horiz-adv-x="278" d="M138-132H56l69 246h97l-84-246z"/><glyph unicode="“" horiz-adv-x="519" d="M185 462H88l84 246h82l-69-246zm177 0h-97l84 246h82l-69-246z"/><glyph unicode="”" horiz-adv-x="519" d="M170 462H88l69 246h97l-84-246zm177 0h-82l69 246h97l-84-246z"/><glyph unicode="„" horiz-adv-x="519" d="M170-132H88l69 246h97l-84-246zm177 0h-82l69 246h97l-84-246z"/><glyph unicode="†" horiz-adv-x="556" d="M233 427H35v78h198v203h90V505h198v-78H323v-553h-90v553z"/><glyph unicode="‡" horiz-adv-x="556" d="M233 66H41v78h192v306H41v78h192v180h90V528h192v-78H323V144h192V66H323v-192h-90V66z"/><glyph unicode="•" horiz-adv-x="500" d="M73 354q0 37 14 69t38 56 56 38 69 14q37 0 69-14t56-38 38-56 14-69q0-37-14-69t-38-56-56-38-69-14q-37 0-69 14t-56 38-38 56-14 69z"/><glyph unicode="…" horiz-adv-x="1000" d="M167-6q-27 0-46 19t-20 47q0 27 19 46t47 20q27 0 46-19t20-47q0-27-19-46T167-6zm333 0q-27 0-46 19t-20 47q0 27 19 46t47 20q27 0 46-19t20-47q0-27-19-46T500-6zm333 0q-27 0-46 19t-20 47q0 27 19 46t47 20q27 0 46-19t20-47q0-27-19-46T833-6z"/><glyph unicode="‰" horiz-adv-x="1056" d="M507-18q-34 0-63 13t-52 35-34 51-13 64q0 34 12 63t35 52 51 34 64 13q34 0 63-12t52-35 35-51 13-64q0-34-13-63t-35-52-51-35-64-13zm0 72q38 0 64 26t27 65q0 38-26 64t-65 26q-38 0-64-26t-26-64q0-38 26-64t64-27zm204 91q0 34 12 63t35 52 51 34 64 13q34 0 63-12t52-35 35-51 13-64q0-34-13-63t-35-52-51-35-64-13q-34 0-63 13t-52 35-34 51-13 64zm162-91q38 0 64 26t27 65q0 38-26 64t-65 26q-38 0-64-26t-26-64q0-38 26-64t64-27zM155-31L93 0l445 740 60-30L155-31zM20 558q0 34 12 63t35 52 51 34 64 13q34 0 63-12t52-35 35-51 13-64q0-34-13-63t-35-52-51-35-64-13q-34 0-63 13t-52 35-34 51-13 64zm72 0q0-38 26-64t64-27q38 0 64 26t27 65q0 38-26 64t-65 26q-38 0-64-26t-26-64z"/><glyph unicode="‹" horiz-adv-x="315" d="M54 243l145 216 62-41-117-175L262 68l-62-41L54 243z"/><glyph unicode="›" horiz-adv-x="315" d="M54 68l117 175L53 418l62 41 146-216L116 27 54 68z"/><glyph unicode="€" horiz-adv-x="556" d="M504 609q-23 17-56 25t-75 9q-65 0-112-39t-70-121h276l-17-67H179q-2-17-3-35t-1-38v-25q0-12 1-23h242l-17-65H182q13-84 52-126t115-42q42 0 72 16t53 43l49-49q-26-35-73-59T345-12q-107 0-169 61T95 230H23l19 65h46q-1 12-1 24v27q0 37 3 70H24l21 67h57q14 60 40 104t62 74 79 44 94 15q42 0 82-10t66-26l-21-75z"/><glyph unicode="™" horiz-adv-x="1000" d="M158 642H34v66h326v-66H236V296h-78v346zm281 66h119l111-316h3l111 316h119V296h-78v344h-2L702 296h-63L519 640h-2V296h-78v412z"/></font>
</defs>
</svg>
