<svg xmlns="http://www.w3.org/2000/svg"><defs><font horiz-adv-x="550" id="731dd4d3-64da-427d-ba61-01575b3cf3f7"><font-face panose-1="2 11 7 3 2 2 3 2 2 4" ascent="950" descent="-250" alphabetic="0"/><glyph/><glyph horiz-adv-x="0"/><glyph horiz-adv-x="296"/><glyph unicode="!" horiz-adv-x="296" d="M208 222H88v486h120V222zM68 70q0 32 23 55t57 23q32 0 56-22t24-54q0-32-23-55T148-6q-16 0-30 6T92 16 75 40t-7 30z"/><glyph unicode="&quot;" horiz-adv-x="519" d="M120 708h102V444H120v264zm177 0h102V444H297v264z"/><glyph unicode="#" horiz-adv-x="592" d="M137 209H47v84h101l18 122H76v84h101l30 209h88l-30-209h103l30 209h87l-30-209h90v-84H443l-17-122h90v-84H416L385 0h-87l30 209H224L194 0h-87l30 209zm116 206l-17-122h103l17 122H253z"/><glyph unicode="$" horiz-adv-x="592" d="M318 720h9q51 0 104-17t92-52l-83-93q-23 25-55 39t-67 15V412l4-1q42-11 82-25t72-36 51-57 20-85q0-50-18-88t-49-66-72-44-90-21v-72h-54v71q-66-1-126 20T31 77l91 93q24-34 62-52t80-22v211l-5 1q-42 12-80 26t-67 38-47 57-17 84q0 45 18 81t48 62 69 43 81 20v67h54v-66zm-54-110q-35-6-62-29t-28-62q0-23 7-37t20-24 28-16 35-15v183zm54-514q21 4 39 12t33 21 22 30 9 40q0 22-9 37t-25 25-33 17-36 13V96z"/><glyph unicode="%" horiz-adv-x="907" d="M505 174q0 39 14 72t40 59 59 40 73 15q39 0 72-14t59-40 40-59 15-73q0-39-14-72t-40-59-59-40-73-15q-39 0-72 14t-59 40-40 59-15 73zm276 0q0 38-26 64t-64 26q-38 0-64-26t-26-64q0-38 26-64t64-26q38 0 64 26t26 64zM30 534q0 39 14 72t40 59 59 40 73 15q39 0 72-14t59-40 40-59 15-73q0-39-14-72t-40-59-59-40-73-15q-39 0-72 14t-59 40-40 59-15 73zm276 0q0 38-26 64t-64 26q-38 0-64-26t-26-64q0-38 26-64t64-26q38 0 64 26t26 64zm315 206l83-38L288-32 205 6l416 734z"/><glyph unicode="&amp;" horiz-adv-x="741" d="M574 167L727 0H572l-75 81q-43-51-92-75T288-18q-47 0-90 13t-77 40-53 65-20 90q0 36 12 66t32 56 49 45 60 32q-17 19-31 37t-26 37-17 41-7 48q0 43 16 76t45 54 65 33 77 11q40 0 76-10t63-30 44-53 17-75q0-33-12-60t-32-50-45-41-52-32l114-123 79 120h141L574 167zM325 618q-35 0-60-19t-25-52q0-14 6-27t16-27 21-26 24-23q15 8 32 18t31 24 24 30 9 36q0 29-23 47t-55 19zm-48-300q-18-11-35-22t-31-26-22-32-9-41q0-23 9-43t24-34 36-22 43-8q41 0 72 22t58 48L277 318z"/><glyph unicode="'" horiz-adv-x="296" d="M97 708h102V444H97v264z"/><glyph unicode="(" horiz-adv-x="296" d="M279 680l-1-4q-60-84-94-184t-34-204q0-104 34-204t94-185l-84-55Q125-61 87 52T48 288q0 122 38 235t108 209l85-52z"/><glyph unicode=")" horiz-adv-x="296" d="M17-104l1 4q60 84 94 184t34 204q0 104-34 204T18 676l84 56q69-95 107-208t39-236q0-122-38-235T102-156l-85 52z"/><glyph unicode="*" horiz-adv-x="463" d="M274 566l135 44 26-80-136-44 86-117-69-50-86 118-84-115-67 51 86 113-137 47 26 80 136-47v142h84V566z"/><glyph unicode="+" horiz-adv-x="666" d="M282 354v220h102V354h220V252H384V32H282v220H62v102h220z"/><glyph unicode="," horiz-adv-x="296" d="M108 138h122l-85-264H38l70 264z"/><glyph unicode="-" horiz-adv-x="315" d="M281 195H34v102h247V195z"/><glyph unicode="." horiz-adv-x="296" d="M68 70q0 32 23 55t57 23q32 0 56-22t24-54q0-32-23-55T148-6q-16 0-30 6T92 16 75 40t-7 30z"/><glyph unicode="/" horiz-adv-x="389" d="M74-48L-9-18l312 776 83-32L74-48z"/><glyph unicode="0" horiz-adv-x="592" d="M40 354q0 84 13 143t36 100 49 65 56 37 55 17 47 4q20 0 46-4t55-16 56-37 50-65 35-100 14-144q0-84-13-143t-36-100-49-65-56-37-55-17-47-4q-20 0-46 4T195 8t-56 37-50 65-35 100-14 144zm120 0q0-33 4-76t19-83 41-66 72-27q45 0 72 27t41 66 18 82 5 77q0 33-4 76t-19 83-41 66-72 27q-45 0-72-27t-41-66-18-82-5-77z"/><glyph unicode="1" horiz-adv-x="592" d="M268 570L135 447l-70 83 214 178h109V0H268v570z"/><glyph unicode="2" horiz-adv-x="592" d="M59 127l275 266 25 25q13 13 23 29t18 31 7 35q0 22-8 39t-23 29-32 18-40 7q-45 0-74-26t-35-70L69 520q4 49 23 86t51 63 72 38 89 13q48 0 89-12t73-37 49-63 18-89q0-67-30-115t-79-93L205 108h328V0H59v127z"/><glyph unicode="3" horiz-adv-x="592" d="M222 423h31q26 0 50 3t44 13 32 29 12 51q0 41-28 67t-73 26q-36 0-64-20t-42-58L57 568q12 39 34 68t52 47 66 28 75 9q46 0 87-12t72-35 49-59 19-83q0-57-32-101t-89-59v-2q68-10 103-58t35-114q0-51-19-90t-53-65-76-40-91-14q-44 0-83 9t-70 30-55 51-35 76l128 34q11-44 39-68t76-24q24 0 45 8t38 22 26 35 10 46q0 34-14 55t-37 33-51 16-55 4h-29v108z"/><glyph unicode="4" horiz-adv-x="592" d="M335 144H34v119l285 445h136V252h103V144H455V0H335v144zm0 394h-2L156 252h179v286z"/><glyph unicode="5" horiz-adv-x="592" d="M505 600H220l-3-141q14 5 35 7t41 2q52 0 95-16t75-48 48-74 18-97q0-57-19-102t-54-77-82-49-101-17q-85 0-144 40T44 150l126 34q12-38 41-60t75-22q27 0 49 9t39 25 26 39 9 48q0 37-13 63t-37 42-53 24-63 8q-39 0-77-9t-71-25l7 382h403V600z"/><glyph unicode="6" horiz-adv-x="592" d="M437 708L267 446l2-2q11 6 29 9t37 3q47 0 86-18t67-49 44-72 16-87q0-55-19-100t-52-76-80-49-101-17q-56 0-102 16t-79 48-52 76-19 101q0 56 18 101t48 93l181 285h146zM170 231q0-27 10-50t27-41 41-28 51-10q27 0 50 10t41 27 28 41 10 51q0 27-10 50t-27 41-41 28-51 10q-27 0-50-10t-41-27-28-41-10-51z"/><glyph unicode="7" horiz-adv-x="592" d="M42 708h481V598L240 0H99l289 594H42v114z"/><glyph unicode="8" horiz-adv-x="592" d="M296 720q45 0 84-12t69-36 47-58 17-80q0-57-26-100t-81-59v-2q25-5 48-20t42-38 28-52 11-62q0-53-19-92t-51-67-76-40-93-14q-50 0-93 13t-76 41-51 66-19 93q0 33 10 62t29 51 41 38 49 21v2q-54 16-80 59T79 534q0 45 17 79t46 58 69 36 85 13zm0-102q-46 0-71-28t-26-68q0-42 26-70t71-29q20 0 37 7t31 21 21 32 8 39q0 40-27 68t-70 28zm0-291q-24 0-46-8t-38-23-25-35-10-45q0-51 33-82t86-32q52 0 85 31t34 83q0 24-9 44t-26 36-38 23-46 8z"/><glyph unicode="9" horiz-adv-x="592" d="M155 0l170 262-2 2q-11-6-29-9t-37-3q-47 0-86 18t-67 49-44 72-16 87q0 55 19 100t52 76 80 49 101 17q55 0 101-16t80-48 52-76 19-101q0-56-18-101t-48-93L301 0H155zm267 477q0 27-10 50t-27 41-41 28-51 10q-27 0-50-10t-41-27-28-41-10-51q0-27 10-50t27-41 41-28 51-10q27 0 50 10t41 27 28 41 10 51z"/><glyph unicode=":" horiz-adv-x="296" d="M68 70q0 32 23 55t57 23q32 0 56-22t24-54q0-32-23-55T148-6q-16 0-30 6T92 16 75 40t-7 30zm0 339q0 32 23 55t57 23q32 0 56-22t24-54q0-32-23-55t-57-23q-16 0-30 6t-26 16-17 24-7 30z"/><glyph unicode=";" horiz-adv-x="296" d="M108 138h122l-85-264H38l70 264zM68 409q0 32 23 55t57 23q32 0 56-22t24-54q0-32-23-55t-57-23q-16 0-30 6t-26 16-17 24-7 30z"/><glyph unicode="&lt;" horiz-adv-x="666" d="M80 267v72l506 225V454L248 303l338-151V42L80 267z"/><glyph unicode="=" horiz-adv-x="666" d="M604 444V342H62v102h542zm0-180V162H62v102h542z"/><glyph unicode="&gt;" horiz-adv-x="666" d="M586 339v-72L80 42v110l338 151L80 454v110l506-225z"/><glyph unicode="?" horiz-adv-x="519" d="M210 209v55q0 22 2 37t9 28 17 24 26 28l77 78q25 25 25 65 0 39-25 63t-65 25q-42 0-69-28t-31-70L48 524q6 48 25 85t49 64 71 39 88 14q45 0 83-13t67-37 45-61 16-84q0-33-9-58t-24-46-34-40-42-40q-14-13-24-23t-16-20-10-24-3-33v-38H210zM190 70q0 32 23 55t57 23q32 0 56-22t24-54q0-32-23-55T270-6q-16 0-30 6t-26 16-17 24-7 30z"/><glyph unicode="@" horiz-adv-x="800" d="M401 456q-25 0-45-9t-33-26-21-39-7-47q0-8 1-23t9-31 25-26 48-12q28 0 47 11t30 28 15 39 5 43q0 40-18 66t-56 26zm326-323Q673 59 593 21T420-18q-80 0-150 27T146 86 63 203 32 353q0 80 30 148t82 118 121 78 149 29q66 0 129-21t114-64 80-103 31-141q0-53-12-92t-32-66-44-44-49-26-47-12-38-4q-42 0-60 17t-19 37h-2q-20-20-50-37t-78-17q-32 0-58 12t-46 35-29 53-11 68q0 44 14 84t39 72 63 50 84 19q40 0 66-13t42-44h2l8 45h94l-37-197-6-28q-3-14-3-29 0-18 5-27t22-10q16 0 31 8t28 27 19 47 8 67q0 60-19 105t-54 77-83 46-105 16q-62 0-113-21t-87-59-57-90-20-113q0-66 22-118t61-88 94-55 117-20q57 0 104 16t85 45h110z"/><glyph unicode="A" horiz-adv-x="722" d="M308 708h109L722 0H578l-66 162H205L141 0H0l308 708zm160-438L359 558 248 270h220z"/><glyph unicode="B" horiz-adv-x="648" d="M79 708h276q40 0 79-9t69-31 50-56 19-82q0-60-34-99t-89-56v-2q33-4 61-18t49-37 31-52 12-64q0-58-23-96t-60-62-86-34-99-10H79v708zm126-288h115q63 0 94 24t32 65q0 46-32 68t-105 23H205V420zm0-312h116q24 0 51 3t51 14 38 31 15 56q0 56-36 78t-114 22H205V108z"/><glyph unicode="C" horiz-adv-x="685" d="M565 542q-39 42-75 56t-74 14q-55 0-99-19t-77-54-49-81-18-99q0-57 17-105t50-83 76-55 100-20q43 0 83 20t76 66l104-74q-48-66-117-96T415-18q-82 0-150 26T147 83 69 200 41 351q0 85 28 154t77 119 118 75 151 27q72 0 133-25t115-87l-98-72z"/><glyph unicode="D" horiz-adv-x="759" d="M79 708h279q70 0 135-21t115-66 80-110 30-157q0-91-34-157T595 87 474 22 343 0H79v708zm220-594q59 0 111 13t92 42 61 74 23 111q0 64-20 110t-55 74-84 42-107 14H205V114h94z"/><glyph unicode="E" horiz-adv-x="611" d="M79 708h469V594H205V420h325V306H205V114h361V0H79v708z"/><glyph unicode="F" horiz-adv-x="574" d="M79 708h457V594H205V408h312V294H205V0H79v708z"/><glyph unicode="G" horiz-adv-x="778" d="M708 52Q577-18 415-18q-82 0-150 26T147 83 69 200 41 351q0 85 28 154t77 119 118 75 151 27q81 0 152-19t127-70l-93-94q-34 33-82 51t-103 18q-55 0-99-19t-77-54-49-81-18-99q0-57 17-105t50-83 76-55 100-20q48 0 90 9t76 28v167H437v114h271V52z"/><glyph unicode="H" horiz-adv-x="741" d="M79 708h126V426h331v282h126V0H536v312H205V0H79v708z"/><glyph unicode="I" horiz-adv-x="278" d="M76 708h126V0H76v708z"/><glyph unicode="J" horiz-adv-x="500" d="M426 196q0-42-13-81t-40-68-67-47-93-18q-84 0-137 39T5 145l118 28q6-35 28-56t56-21q54 0 73 36t20 101v475h126V196z"/><glyph unicode="K" horiz-adv-x="685" d="M79 708h126V408h6l293 300h170L343 381 696 0H519L212 348h-7V0H79v708z"/><glyph unicode="L" horiz-adv-x="519" d="M79 708h126V114h301V0H79v708z"/><glyph unicode="M" horiz-adv-x="926" d="M82 708h192l189-496 191 496h190V0H724v588h-2L507 0h-88L204 588h-2V0H82v708z"/><glyph unicode="N" horiz-adv-x="796" d="M79 708h167l343-526h2v526h126V0H557L207 543h-2V0H79v708z"/><glyph unicode="O" horiz-adv-x="833" d="M41 351q0 85 28 154t77 119 118 75 151 27q83 1 152-24t119-75 78-118 28-154q0-83-28-151T686 87 567 11 415-18q-82 0-150 26T147 83 69 200 41 351zm132 8q0-57 17-105t50-83 76-55 100-20q55 0 100 20t77 55 49 83 18 105q0 53-17 99t-50 80-77 54-100 20q-55 0-99-19t-77-54-49-81-18-99z"/><glyph unicode="P" horiz-adv-x="611" d="M79 708h238q51 0 98-10t84-33 57-63 22-99q0-67-23-108t-62-63-90-31-108-8h-90V0H79v708zm202-307q27 0 56 2t53 12 40 30 16 56q0 33-14 52t-36 30-49 14-52 3h-90V401h76z"/><glyph unicode="Q" horiz-adv-x="852" d="M839 0H427q-83 0-153 25T152 98 71 214 41 369q0 78 29 143t81 113 118 74 144 27q76 0 143-26t119-74 80-113 30-144q0-56-13-98t-36-75-48-55-52-37v-2h203V0zM410 612q-51 0-94-18t-75-52-50-78-18-98q0-54 18-100t50-80 75-53 96-19q52 0 96 19t77 52 50 80 18 101q0 53-18 98t-50 78-76 51-99 19z"/><glyph unicode="R" horiz-adv-x="630" d="M79 708h246q51 0 98-9t85-33 59-62 22-99q0-77-42-129t-122-63L613 0H461L297 300h-92V0H79v708zm224-300q27 0 54 2t49 12 37 29 14 55q0 31-13 50t-34 28-46 13-50 3H205V408h98z"/><glyph unicode="S" horiz-adv-x="574" d="M426 556q-20 29-53 42t-71 14q-22 0-42-5t-37-16-27-28-10-42q0-36 25-55t62-33 81-27 81-36 62-61 25-101q0-57-21-99t-56-71-83-42-99-14q-66 0-127 22T31 78l95 92q23-35 60-54t80-20q22 0 44 6t40 18 29 30 11 43q0 39-25 60t-62 35-81 28-81 35-62 60-25 101q0 55 22 95t59 66 84 40 96 13q56 0 108-17t95-56l-92-97z"/><glyph unicode="T" horiz-adv-x="574" d="M224 594H7v114h560V594H350V0H224v594z"/><glyph unicode="U" horiz-adv-x="722" d="M646 260q0-64-22-115t-60-88-90-55-113-20q-61 0-113 19t-90 56-60 87-22 116v448h126V264q0-26 8-54t26-53 49-39 76-16q45 0 75 15t49 40 27 52 8 55v444h126V260z"/><glyph unicode="V" horiz-adv-x="667" d="M-3 708h145l193-535 199 535h136L384 0H275L-3 708z"/><glyph unicode="W" horiz-adv-x="981" d="M0 708h138l133-510h2l159 510h124l156-510h2l139 510h128L775 0H655L491 539h-2L325 0H209L0 708z"/><glyph unicode="X" horiz-adv-x="685" d="M252 370L16 708h159l167-262 165 262h153L428 370 685 0H525L338 299 152 0H0l252 370z"/><glyph unicode="Y" horiz-adv-x="630" d="M252 303L-14 708h158l174-282 176 282h150L378 303V0H252v303z"/><glyph unicode="Z" horiz-adv-x="611" d="M35 114l378 480H41v114h529V594L189 114h387V0H35v114z"/><glyph unicode="[" horiz-adv-x="278" d="M258 654h-90V-78h90v-78H66v888h192v-78z"/><glyph unicode="\" horiz-adv-x="389" d="M86 758L398-18l-83-30L3 726l83 32z"/><glyph unicode="]" horiz-adv-x="278" d="M20-78h90v732H20v78h192v-888H20v78z"/><glyph unicode="^" horiz-adv-x="666" d="M69 343l223 365h82l223-365H479L332 582 187 343H69z"/><glyph unicode="_" horiz-adv-x="500" d="M0-125v50h500v-50H0z"/><glyph unicode="`" horiz-adv-x="260" d="M177 564H83L-58 708H78l99-144z"/><glyph unicode="a" horiz-adv-x="537" d="M368 66h-3q-26-41-66-59t-88-19q-33 0-64 9T91 24 51 69t-15 63q0 39 14 66t37 46 55 30 64 16 68 7 64 2h30v13q0 45-31 67t-79 23q-38 0-71-13t-57-37l-63 63q40 41 93 59t111 18q51 0 86-11t58-30 35-41 18-48 7-46 1-40V0H368v66zm-7 149h-25q-25 0-56-2t-58-9-47-22-19-41q0-17 7-28t20-20 27-11 30-4q62 0 91 29t30 81v27z"/><glyph unicode="b" horiz-adv-x="630" d="M68 756h120V419h3q9 12 23 24t34 24 46 18 60 7q51 0 94-19t73-54 48-80 17-99q0-53-16-99t-47-80-75-53-99-20q-51 0-95 20t-70 64h-2V0H68v756zm398-516q0 28-9 54t-28 46-45 32-59 12q-33 0-59-12t-44-32-28-46-10-54q0-28 9-54t28-46 45-32 59-12q33 0 59 12t44 32 28 46 10 54z"/><glyph unicode="c" horiz-adv-x="482" d="M396 336q-21 22-44 35t-47 13q-33 0-59-12t-44-32-28-46-10-54q0-28 9-54t28-46 45-32 59-12q28 0 52 11t41 34l80-86q-18-18-41-31T389 3 343-8t-38-4q-54 0-102 18t-83 51-55 79-21 104q0 57 20 103t56 80 83 51 102 18q46 0 92-17t82-56l-83-83z"/><glyph unicode="d" horiz-adv-x="630" d="M448 72h-2q-26-44-70-64t-95-20q-56 0-99 19t-75 54-47 80-16 99q0 53 17 99t47 80 74 53 94 20q34 0 60-7t46-18 34-23 23-25h3v337h120V0H448v72zM164 240q0-28 9-54t28-46 45-32 59-12q33 0 59 12t44 32 28 46 10 54q0 28-9 54t-28 46-45 32-59 12q-33 0-59-12t-44-32-28-46-10-54z"/><glyph unicode="e" horiz-adv-x="574" d="M164 198q6-54 42-84t87-30q45 0 75 18t54 47l86-65q-42-52-94-74T305-12q-54 0-102 18t-83 51-55 79-21 104q0 57 20 103t56 80 83 51 102 18q50 0 91-17t71-51 46-81 17-112v-33H164zm246 90q-1 53-33 83t-89 31q-54 0-85-31t-39-83h246z"/><glyph unicode="f" horiz-adv-x="352" d="M111 378H12v102h99v68q0 50 7 90t26 70 55 44 91 16q41 0 76-7l-8-102q-13 3-25 5t-25 2q-25 0-40-8t-23-21-11-32-3-38v-87h111V378H231V0H111v378z"/><glyph unicode="g" horiz-adv-x="630" d="M562 480V43q0-65-16-117t-49-89-85-57-121-20q-67 0-127 17T53-161l72 98q36-33 75-51t90-18q43 0 72 12t47 33 25 50 8 66v35h-2q-26-35-69-52T283-6q-54 0-98 19t-75 53-49 78-17 96q0 53 16 99t47 80 74 53 100 20q51 0 95-20t70-64h2v72h114zm-256-96q-32 0-58-10t-44-29-29-45-11-59q0-29 10-54t30-44 45-30 56-11q33 0 59 11t45 29 29 45 10 56q0 63-38 102t-104 39z"/><glyph unicode="h" horiz-adv-x="574" d="M188 413h2q14 30 49 54t92 25q48 0 81-16t55-42 30-60 9-71V0H386v243q0 20-2 44t-10 46-27 36-49 15q-30 0-50-10t-34-27-20-39-6-46V0H68v756h120V413z"/><glyph unicode="i" horiz-adv-x="260" d="M70 480h120V0H70v480zM53 643q0 29 21 50t55 22q33 0 55-20t23-52q0-31-22-51t-56-21q-33 0-54 21t-22 51z"/><glyph unicode="j" horiz-adv-x="260" d="M190 480V-29q0-45-6-83t-23-67-50-45-83-16q-17 0-33 2t-32 7l9 104q10-2 19-3t19-2q22 0 34 9t18 25 7 33 1 35v510h120zM53 643q0 29 21 50t55 22q33 0 55-20t23-52q0-31-22-51t-56-21q-33 0-54 21t-22 51z"/><glyph unicode="k" horiz-adv-x="537" d="M68 756h120V281l185 199h154L321 262 540 0H381L190 245h-2V0H68v756z"/><glyph unicode="l" horiz-adv-x="260" d="M70 756h120V0H70v756z"/><glyph unicode="m" horiz-adv-x="870" d="M63 480h114v-75h2q16 34 51 60t96 27q113 0 150-89 26 46 65 67t93 22q48 0 81-16t53-44 30-65 9-81V0H687v272q0 22-4 42t-14 36-27 25-44 9q-28 0-47-10t-32-28-18-40-6-46V0H375v286q0 45-19 71t-63 27q-30 0-50-10t-34-27-20-39-6-46V0H63v480z"/><glyph unicode="n" horiz-adv-x="574" d="M68 480h114v-77h2q17 36 52 62t95 27q48 0 81-16t55-42 30-60 9-71V0H386v243q0 20-2 44t-10 46-27 36-49 15q-30 0-50-10t-34-27-20-39-6-46V0H68v480z"/><glyph unicode="o" horiz-adv-x="610" d="M44 240q0 57 20 103t56 80 83 51 102 18q54 0 102-18t83-51 55-79 21-104q0-57-20-103t-56-80-83-51-102-18q-54 0-102 18t-83 51-55 79-21 104zm120 0q0-28 9-54t28-46 45-32 59-12q33 0 59 12t44 32 28 46 10 54q0 28-9 54t-28 46-45 32-59 12q-33 0-59-12t-44-32-28-46-10-54z"/><glyph unicode="p" horiz-adv-x="630" d="M68 480h114v-72h2q26 44 70 64t95 20q55 0 99-19t75-54 47-80 16-99q0-53-17-99t-47-80-74-53-94-20q-34 0-60 7t-46 18-34 23-23 25h-3v-289H68v708zm398-240q0 28-9 54t-28 46-45 32-59 12q-33 0-59-12t-44-32-28-46-10-54q0-28 9-54t28-46 45-32 59-12q33 0 59 12t44 32 28 46 10 54z"/><glyph unicode="q" horiz-adv-x="630" d="M562-228H442V61h-3q-9-12-23-24t-34-24-46-18-60-7q-51 0-94 19t-73 54-48 80-17 99q0 53 16 99t47 80 74 53 100 20q51 0 95-20t70-64h2v72h114v-708zM164 240q0-28 9-54t28-46 45-32 59-12q33 0 59 12t44 32 28 46 10 54q0 28-9 54t-28 46-45 32-59 12q-33 0-59-12t-44-32-28-46-10-54z"/><glyph unicode="r" horiz-adv-x="389" d="M68 480h120v-76h2q20 42 57 65t85 23q11 0 21-2t22-5V369q-15 4-29 6t-29 3q-42 0-67-15t-39-36-18-40-5-30V0H68v480z"/><glyph unicode="s" horiz-adv-x="444" d="M324 347q-35 49-94 49-24 0-47-12t-23-39q0-22 19-32t48-17 62-14 63-23 48-43 19-74q0-43-18-72t-48-48-67-26-74-8q-56 0-103 16T25 62l80 75q23-26 49-42t65-17q13 0 27 3t26 10 19 17 8 25q0 25-19 37t-48 19-62 14-63 21-48 41-19 72q0 40 16 69t44 49 62 28 71 9q48 0 95-16t76-57l-80-72z"/><glyph unicode="t" horiz-adv-x="389" d="M12 378v102h99v139h120V480h132V378H231V168q0-36 13-57t54-21q16 0 35 3t30 12V4q-19-9-46-12t-49-4q-48 0-78 10t-48 32-24 54-7 74v220H12z"/><glyph unicode="u" horiz-adv-x="574" d="M506 0H392v77h-2q-17-36-52-62t-95-27q-48 0-81 15t-55 42-30 61-9 71v303h120V237q0-20 2-44t10-46 26-36 50-15q30 0 50 10t34 27 20 39 6 46v262h120V0z"/><glyph unicode="v" horiz-adv-x="519" d="M3 480h131l128-336h2l129 336h123L327 0H199L3 480z"/><glyph unicode="w" horiz-adv-x="796" d="M3 480h130l104-336h2l97 336h130l104-336h2l100 336h121L630 0H511L397 328h-2L294 0H170L3 480z"/><glyph unicode="x" horiz-adv-x="537" d="M192 258L26 480h146l96-144 104 144h137L345 258 538 0H392L267 172 141 0H-1l193 258z"/><glyph unicode="y" horiz-adv-x="519" d="M3 480h132l134-333h2l120 333h125L289-103q-13-34-28-59t-37-43-49-26-69-9q-47 0-92 12l15 108q14-5 29-8t32-4q22 0 37 4t25 12 18 22 15 33l23 57L3 480z"/><glyph unicode="z" horiz-adv-x="482" d="M34 111l257 271v2H46v96h390V371L176 96h272V0H34v111z"/><glyph unicode="{" horiz-adv-x="278" d="M0 332q10 0 26 3t31 10 26 22 11 35v198q0 34 14 58t34 41 42 25 38 8h91v-84h-55q-21 0-33-7t-19-17-8-23-2-23V390q0-29-11-48t-26-30-32-17-29-6v-2q12-1 28-5t32-15 27-31 11-56V-2q0-11 1-23t8-22 19-18 34-7h55v-84h-91q-16 0-38 8t-42 24-34 41-14 59v191q0 24-11 39t-26 23-31 12-26 3v88z"/><glyph unicode="|" horiz-adv-x="222" d="M162 750V-250H60V750h102z"/><glyph unicode="}" horiz-adv-x="278" d="M278 244q-11 0-27-3t-31-10-25-22-11-35V-24q0-34-14-58t-34-41-42-25-38-8h-91v84h55q21 0 33 7t19 17 8 23 2 23v188q0 29 11 48t26 30 32 16 29 7v2q-12 1-28 5t-32 15-27 31-11 56v182q0 11-1 23t-8 22-19 18-34 7h-55v84h91q16 0 38-8t42-24 34-41 14-59V409q0-24 10-39t26-23 31-12 27-3v-88z"/><glyph unicode="~" horiz-adv-x="666" d="M565 301q-11-16-23-31t-27-28-33-19-42-8q-28 0-52 9t-50 24q-24 14-52 24t-63 11q-17 0-30-6t-24-16-18-22-14-24l-36 84q8 16 19 31t26 28 34 19 43 8q29 0 58-9t58-23q28-12 54-24t47-12q15 0 28 6t23 16 20 22 18 24l36-84z"/><glyph horiz-adv-x="296"/><glyph unicode="¡" horiz-adv-x="296" d="M88 265h120v-487H88v487zm140 151q0-32-23-55t-57-23q-32 0-56 22t-24 54q0 32 23 55t57 23q16 0 30-6t26-16 17-24 7-30z"/><glyph unicode="¢" horiz-adv-x="592" d="M354 492q48-2 93-17t77-52l-77-78q-19 20-42 31t-51 14V90q28 0 53 13t44 33l73-79q-32-35-77-51t-93-18v-72h-54v72q-51 4-92 25t-70 55-44 78-16 95q0 105 59 171t163 80v67h54v-67zm-54-103q-28-6-48-19t-33-33-20-45-7-52q0-53 27-94t81-56v299z"/><glyph unicode="£" horiz-adv-x="592" d="M66 96h102v219H66v84h102v100q0 37 13 76t41 71 72 53 106 21q54 0 104-15t87-49l-81-87q-22 20-48 31t-58 12q-28 0-49-10t-37-28-22-39-8-46v-90h162v-84H288V96h253V0H66v96z"/><glyph unicode="¤" horiz-adv-x="592" d="M36 155l49 49q-23 32-36 70t-13 81q0 42 13 80t36 71l-49 49 60 59 49-48q32 23 70 35t81 13q43 0 81-12t70-36l49 48 60-59-49-49q49-67 49-151 0-42-13-80t-36-71l49-49-60-60-49 49q-32-23-70-36t-81-13q-84 0-151 49L96 95l-60 60zm114 200q0-69 39-110t107-42q67 0 106 41t40 111q0 69-39 110t-107 41q-67 0-106-41t-40-110z"/><glyph unicode="¥" horiz-adv-x="592" d="M236 177H66v78h170v48l-19 34H66v78h108L12 708h135l155-294 149 294h129L418 415h108v-78H375l-19-34v-48h170v-78H356V0H236v177z"/><glyph unicode="¦" horiz-adv-x="222" d="M162 675V325H60v350h102zm0-500v-350H60v350h102z"/><glyph unicode="§" horiz-adv-x="593" d="M398 566q-11 30-37 47t-58 17q-30 0-55-16t-26-50q0-28 22-46t55-34 73-32 72-38 56-55 22-79q0-42-24-76t-61-52q29-22 45-52t16-67q0-45-20-78t-52-56-72-32-79-11q-36 0-69 6t-62 21-52 37-39 59l107 52q11-38 44-55t70-18q15 0 31 3t30 11 22 20 9 31q0 28-22 46t-55 33-73 30-72 37-56 52-22 78q0 55 26 90t70 58q-31 20-48 48t-18 66q0 42 18 73t47 51 65 31 74 10q29 0 59-5t57-17 50-31 37-48l-105-59zm-36-372q18 10 32 30t14 40q0 19-7 32t-19 23-26 17-29 16l-89 42q-24-11-41-26t-17-44q0-18 8-31t20-23 28-17 29-14l97-45z"/><glyph unicode="¨" horiz-adv-x="260" d="M-50 636q0 29 21 50t55 22q33 0 55-20t23-52q0-31-22-51t-56-21q-33 0-54 21t-22 51zm206 0q0 29 21 50t55 22q33 0 55-20t23-52q0-31-22-51t-56-21q-33 0-54 21t-22 51z"/><glyph unicode="©" horiz-adv-x="800" d="M588 297q-5-38-21-66t-41-48-53-30-63-10q-47 0-84 16t-62 46-39 68-14 84q0 46 13 84t37 67 62 43 85 16q34 0 64-9t54-27 40-45 22-64h-94q-7 35-29 48t-49 13q-58 0-83-35t-26-89q0-28 7-52t20-42 34-28 46-10q32 0 55 15t25 55h94zM28 354q0 77 29 144t80 118 118 80 145 30q77 0 144-29t118-80 80-118 30-145q0-77-29-144T663 92 545 12 400-18q-77 0-144 29T138 91 58 209 28 354zm96 0q0-60 21-112t59-92 87-61 109-23q58 0 108 22t88 62 58 91 22 113q0 60-21 112t-59 92-87 61-109 23q-58 0-108-22t-88-62-58-91-22-113z"/><glyph unicode="ª" horiz-adv-x="349" d="M243 470h-2q-15-25-44-35t-59-10q-13 0-31 3t-36 13-30 27-13 45q0 35 20 55t49 30 64 12 65 3h17v8q0 17-20 25t-49 8q-25 0-45-8t-38-24l-43 53q26 23 62 34t76 11q72 0 103-29t32-91V431h-78v39zm-32 83q-12 0-29-1t-32-5-27-11-11-20q0-15 15-23t35-8q43 0 60 17t17 45v6h-28z"/><glyph unicode="«" horiz-adv-x="519" d="M142 248L258 73l-76-51L30 248l152 224 75-51-115-173zm223 0L481 73l-76-51-152 226 152 224 75-51-115-173z"/><glyph unicode="¬" horiz-adv-x="666" d="M502 342H62v102h542V147H502v195z"/><glyph unicode="­" horiz-adv-x="296"/><glyph unicode="®" horiz-adv-x="800" d="M257 553h125q34 0 65-5t56-17 40-35 15-58q0-26-8-47t-20-37-28-24-32-12l100-155H465l-89 150h-23V163h-96v390zm95-162h47q9 0 20 1t20 5 16 12 7 24q0 15-6 23t-16 13-21 5-20 1h-47v-84zM28 354q0 77 29 144t80 118 118 80 145 30q77 0 144-29t118-80 80-118 30-145q0-77-29-144T663 92 545 12 400-18q-77 0-144 29T138 91 58 209 28 354zm96 0q0-60 21-112t59-92 87-61 109-23q58 0 108 22t88 62 58 91 22 113q0 60-21 112t-59 92-87 61-109 23q-58 0-108-22t-88-62-58-91-22-113z"/><glyph unicode="¯" horiz-adv-x="260" d="M290 595H-30v78h320v-78z"/><glyph unicode="°" horiz-adv-x="400" d="M40 560q0 33 12 62t35 51 51 34 62 13q33 0 62-12t51-35 34-51 13-62q0-33-12-62t-35-51-51-34-62-13q-33 0-62 12t-51 35-34 51-13 62zm78 0q0-34 24-58t58-24q34 0 58 24t24 58q0 34-24 58t-58 24q-34 0-58-24t-24-58z"/><glyph unicode="±" horiz-adv-x="666" d="M283 574h102V431h219V329H385V186H283v143H62v102h221v143zM62 134h542V32H62v102z"/><glyph unicode="²" horiz-adv-x="385" d="M31 384l180 152q14 12 27 26t14 29q0 21-16 30t-40 9q-27 0-43-15t-19-39l-96 6q5 72 49 105t114 33q66 0 109-32t44-96q0-65-58-109L156 375v-2h198v-84H31v95z"/><glyph unicode="³" horiz-adv-x="385" d="M146 552h32q13 0 26 1t22 7 16 14 6 23q0 16-14 24t-39 9q-23 0-39-11t-22-33L31 606q7 32 23 53t37 35 48 20 56 6q30 0 58-7t49-21 35-35 13-51q0-35-20-60t-59-33v-2q42-5 64-34t23-66q0-32-13-56t-36-40-53-24-64-8q-62 0-106 27t-59 91l103 22q5-23 20-36t42-14q27 0 45 11t19 37q0 17-7 26t-20 14-28 6-32 1h-23v84z"/><glyph unicode="´" horiz-adv-x="260" d="M182 708h136L177 564H83l99 144z"/><glyph unicode="µ" horiz-adv-x="574" d="M188 480V237q0-20 2-44t10-46 26-36 50-15q30 0 50 10t34 27 20 39 6 46v262h120V0H392v77h-2q-17-36-52-62t-95-27q-33 0-55 7v-223H68v708h120z"/><glyph unicode="¶" horiz-adv-x="600" d="M246 338q-49 0-88 13t-68 38-43 58-16 73q0 50 17 86t47 58 74 33 95 11h269v-834h-90v762H336v-762h-90v464z"/><glyph unicode="·" horiz-adv-x="296" d="M68 291q0 32 23 55t57 23q32 0 56-22t24-54q0-32-23-55t-57-23q-16 0-30 6t-26 16-17 24-7 30z"/><glyph unicode="¸" horiz-adv-x="260" d="M177-60q22 0 43-2t39-10 28-25 11-46q0-27-13-46t-34-30-45-16-47-5q-56 0-106 28l22 46q38-20 82-20 8 0 18 2t18 6 15 13 6 21q0 20-17 28t-34 8q-10 0-19-2t-18-5L99-90l62 90h58l-42-60z"/><glyph unicode="¹" horiz-adv-x="385" d="M179 606l-84-75-55 66 150 117h91V289H179v317z"/><glyph unicode="º" horiz-adv-x="397" d="M197 425q-35 0-65 10t-53 30-36 47-12 60q0 33 13 60t35 46 53 31 65 11q35 0 66-11t54-30 36-47 13-60q0-33-13-60t-36-46-54-30-66-11zm0 72q21 0 37 7t26 18 16 24 6 26q0 13-5 26t-16 25-27 18-37 7q-21 0-37-7t-26-18-16-24-5-27q0-13 5-26t15-24 27-18 37-7z"/><glyph unicode="»" horiz-adv-x="519" d="M377 246L261 421l76 51 152-226L337 22l-75 51 115 173zm-223 0L38 421l76 51 152-226L114 22 39 73l115 173z"/><glyph unicode="¼" horiz-adv-x="889" d="M168 606l-84-75-55 66 150 117h91V289H168v317zM705 85H507v78l188 262h112V169h53V85h-53V0H705v85zm0 218l-1 2-95-136h96v134zM600 740l83-38L267-32 184 6l416 734z"/><glyph unicode="½" horiz-adv-x="889" d="M171 606l-84-75-55 66 150 117h91V289H171v317zM535 95l179 152q14 12 27 26t14 29q0 21-16 30t-40 9q-27 0-43-15t-19-39l-96 6q5 72 49 105t114 33q66 0 109-32t44-96q0-65-58-109L659 86v-2h198V0H535v95zm67 645l83-38L269-32 186 6l416 734z"/><glyph unicode="¾" horiz-adv-x="889" d="M715 335h-2L595 159v-2h120v178zM142 552h32q13 0 26 1t22 7 16 14 6 23q0 16-14 24t-39 9q-23 0-39-11t-22-33L27 606q7 32 23 53t37 35 48 20 56 6q30 0 58-7t49-21 35-35 13-51q0-35-20-60t-59-33v-2q42-5 64-34t23-66q0-32-13-56t-36-40-53-24-64-8q-62 0-106 27t-59 91l103 22q5-23 20-36t42-14q27 0 45 11t19 37q0 17-7 26t-20 14-28 6-32 1h-23v84zM712 85H514v78l188 262h112V169h52V85h-52V0H712v85zm-85 655l83-38L294-32 211 6l416 734z"/><glyph unicode="¿" horiz-adv-x="519" d="M309 277v-55q0-23-2-38t-9-27-17-24-26-28l-77-78q-25-25-25-65 0-39 25-63t65-25q42 0 69 28t31 70l128-10q-6-48-25-85t-49-64-71-39-88-14q-45 0-83 12t-67 38-45 61-16 84q0 33 9 58t24 46 34 40 42 40q14 13 24 23t16 20 10 24 3 33v38h120zm20 139q0-32-23-55t-57-23q-32 0-56 22t-24 54q0 32 23 55t57 23q16 0 30-6t26-16 17-24 7-30z"/><glyph unicode="À" horiz-adv-x="722" d="M308 708h109L722 0H578l-66 162H205L141 0H0l308 708zm160-438L359 558 248 270h220zm-60 486h-94L173 900h136l99-144z"/><glyph unicode="Á" horiz-adv-x="722" d="M308 708h109L722 0H578l-66 162H205L141 0H0l308 708zm160-438L359 558 248 270h220zm-55 630h136L408 756h-94l99 144z"/><glyph unicode="Â" horiz-adv-x="722" d="M308 708h109L722 0H578l-66 162H205L141 0H0l308 708zm160-438L359 558 248 270h220zm-39 486l-69 90-69-90H179l115 144h135l114-144H429z"/><glyph unicode="Ã" horiz-adv-x="722" d="M308 708h109L722 0H578l-66 162H205L141 0H0l308 708zm160-438L359 558 248 270h220zM177 760q4 24 11 47t21 40 32 29 48 11q20 0 40-6t40-12 35-13 29-6q20 0 30 12t16 30h66q-4-24-11-47t-21-40-32-29-48-11q-20 0-40 6t-40 13-35 13-29 6q-20 0-30-13t-16-30h-66z"/><glyph unicode="Ä" horiz-adv-x="722" d="M308 708h109L722 0H578l-66 162H205L141 0H0l308 708zm160-438L359 558 248 270h220zM181 828q0 29 21 50t55 22q33 0 55-20t23-52q0-31-22-51t-56-21q-33 0-54 21t-22 51zm206 0q0 29 21 50t55 22q33 0 55-20t23-52q0-31-22-51t-56-21q-33 0-54 21t-22 51z"/><glyph unicode="Å" horiz-adv-x="722" d="M308 708h109L722 0H578l-66 162H205L141 0H0l308 708zm160-438L359 558 248 270h220zm-2 567q0-45-30-73t-75-29q-45 0-75 28t-30 73q0 22 8 41t22 32 33 22 42 8q45 0 75-28t30-74zm-48 0q0 23-17 38t-40 16q-23 0-40-15t-17-39q0-23 17-38t40-16q23 0 40 15t17 39z"/><glyph unicode="Æ" horiz-adv-x="1000" d="M529 186H261L147 0H-6l453 708h496V594H655V420h270V306H655V114h300V0H529v186zm0 108v300h-15L327 294h202z"/><glyph unicode="Ç" horiz-adv-x="685" d="M565 542q-39 42-75 56t-74 14q-55 0-99-19t-77-54-49-81-18-99q0-57 17-105t50-83 76-55 100-20q43 0 83 20t76 66l104-74q-48-66-115-95T419-18l-29-42q22 0 43-2t39-10 28-25 11-46q0-27-13-46t-34-30-45-16-47-5q-56 0-106 28l22 46q38-20 82-20 8 0 18 2t18 6 15 13 6 21q0 20-17 28t-34 8q-10 0-19-2t-18-5l-27 25 51 75q-72 8-131 38t-101 77-66 111-24 140q0 85 28 154t77 119 118 75 151 27q72 0 133-25t115-87l-98-72z"/><glyph unicode="È" horiz-adv-x="611" d="M79 708h469V594H205V420h325V306H205V114h361V0H79v708zm274 48h-94L118 900h136l99-144z"/><glyph unicode="É" horiz-adv-x="611" d="M79 708h469V594H205V420h325V306H205V114h361V0H79v708zm279 192h136L353 756h-94l99 144z"/><glyph unicode="Ê" horiz-adv-x="611" d="M79 708h469V594H205V420h325V306H205V114h361V0H79v708zm295 48l-69 90-69-90H124l115 144h135l114-144H374z"/><glyph unicode="Ë" horiz-adv-x="611" d="M79 708h469V594H205V420h325V306H205V114h361V0H79v708zm47 120q0 29 21 50t55 22q33 0 55-20t23-52q0-31-22-51t-56-21q-33 0-54 21t-22 51zm206 0q0 29 21 50t55 22q33 0 55-20t23-52q0-31-22-51t-56-21q-33 0-54 21t-22 51z"/><glyph unicode="Ì" horiz-adv-x="278" d="M76 708h126V0H76v708zm110 48H92L-49 900H87l99-144z"/><glyph unicode="Í" horiz-adv-x="278" d="M76 708h126V0H76v708zm115 192h136L186 756H92l99 144z"/><glyph unicode="Î" horiz-adv-x="278" d="M76 708h126V0H76v708zm131 48l-69 90-69-90H-43L72 900h135l114-144H207z"/><glyph unicode="Ï" horiz-adv-x="278" d="M76 708h126V0H76v708zM-41 828q0 29 21 50t55 22q33 0 55-20t23-52q0-31-22-51t-56-21q-33 0-54 21t-22 51zm206 0q0 29 21 50t55 22q33 0 55-20t23-52q0-31-22-51t-56-21q-33 0-54 21t-22 51z"/><glyph unicode="Ð" horiz-adv-x="759" d="M79 324H13v84h66v300h279q70 0 135-21t115-66 80-110 30-157q0-91-34-157T595 87 474 22 343 0H79v324zm220-210q59 0 111 13t92 42 61 74 23 111q0 64-20 110t-55 74-84 42-107 14H205V408h216v-84H205V114h94z"/><glyph unicode="Ñ" horiz-adv-x="796" d="M79 708h167l343-526h2v526h126V0H557L207 543h-2V0H79v708zm135 52q4 24 11 47t21 40 32 29 48 11q20 0 40-6t40-12 35-13 29-6q20 0 30 12t16 30h66q-4-24-11-47t-21-40-32-29-48-11q-20 0-40 6t-40 13-35 13-29 6q-20 0-30-13t-16-30h-66z"/><glyph unicode="Ò" horiz-adv-x="833" d="M41 351q0 85 28 154t77 119 118 75 151 27q83 1 152-24t119-75 78-118 28-154q0-83-28-151T686 87 567 11 415-18q-82 0-150 26T147 83 69 200 41 351zm132 8q0-57 17-105t50-83 76-55 100-20q55 0 100 20t77 55 49 83 18 105q0 53-17 99t-50 80-77 54-100 20q-55 0-99-19t-77-54-49-81-18-99zm291 397h-94L229 900h136l99-144z"/><glyph unicode="Ó" horiz-adv-x="833" d="M41 351q0 85 28 154t77 119 118 75 151 27q83 1 152-24t119-75 78-118 28-154q0-83-28-151T686 87 567 11 415-18q-82 0-150 26T147 83 69 200 41 351zm132 8q0-57 17-105t50-83 76-55 100-20q55 0 100 20t77 55 49 83 18 105q0 53-17 99t-50 80-77 54-100 20q-55 0-99-19t-77-54-49-81-18-99zm296 541h136L464 756h-94l99 144z"/><glyph unicode="Ô" horiz-adv-x="833" d="M41 351q0 85 28 154t77 119 118 75 151 27q83 1 152-24t119-75 78-118 28-154q0-83-28-151T686 87 567 11 415-18q-82 0-150 26T147 83 69 200 41 351zm132 8q0-57 17-105t50-83 76-55 100-20q55 0 100 20t77 55 49 83 18 105q0 53-17 99t-50 80-77 54-100 20q-55 0-99-19t-77-54-49-81-18-99zm312 397l-69 90-69-90H235l115 144h135l114-144H485z"/><glyph unicode="Õ" horiz-adv-x="833" d="M41 351q0 85 28 154t77 119 118 75 151 27q83 1 152-24t119-75 78-118 28-154q0-83-28-151T686 87 567 11 415-18q-82 0-150 26T147 83 69 200 41 351zm132 8q0-57 17-105t50-83 76-55 100-20q55 0 100 20t77 55 49 83 18 105q0 53-17 99t-50 80-77 54-100 20q-55 0-99-19t-77-54-49-81-18-99zm60 401q4 24 11 47t21 40 32 29 48 11q20 0 40-6t40-12 35-13 29-6q20 0 30 12t16 30h66q-4-24-11-47t-21-40-32-29-48-11q-20 0-40 6t-40 13-35 13-29 6q-20 0-30-13t-16-30h-66z"/><glyph unicode="Ö" horiz-adv-x="833" d="M41 351q0 85 28 154t77 119 118 75 151 27q83 1 152-24t119-75 78-118 28-154q0-83-28-151T686 87 567 11 415-18q-82 0-150 26T147 83 69 200 41 351zm132 8q0-57 17-105t50-83 76-55 100-20q55 0 100 20t77 55 49 83 18 105q0 53-17 99t-50 80-77 54-100 20q-55 0-99-19t-77-54-49-81-18-99zm64 469q0 29 21 50t55 22q33 0 55-20t23-52q0-31-22-51t-56-21q-33 0-54 21t-22 51zm206 0q0 29 21 50t55 22q33 0 55-20t23-52q0-31-22-51t-56-21q-33 0-54 21t-22 51z"/><glyph unicode="×" horiz-adv-x="666" d="M333 374l182 182 70-70-181-181 185-186-74-74-183 181L151 45l-74 73 185 182L78 486l72 71 183-183z"/><glyph unicode="Ø" horiz-adv-x="833" d="M559 567q-62 45-143 45-55 0-99-19t-77-54-49-81-18-99q0-47 12-88t34-74l340 370zM264 148q31-25 69-38t83-14q55 0 100 20t77 55 49 83 18 105q0 97-54 162L264 148zm517 564l-86-94q47-49 72-115t25-148q0-83-28-151T686 87 567 11 415-18q-69 0-129 19T179 56L94-36 44 7l87 94q-43 48-66 111T41 351q0 85 28 154t77 119 118 75 151 27q67 2 124-15t106-50l87 94 49-43z"/><glyph unicode="Ù" horiz-adv-x="722" d="M646 260q0-64-22-115t-60-88-90-55-113-20q-61 0-113 19t-90 56-60 87-22 116v448h126V264q0-26 8-54t26-53 49-39 76-16q45 0 75 15t49 40 27 52 8 55v444h126V260zM408 756h-94L173 900h136l99-144z"/><glyph unicode="Ú" horiz-adv-x="722" d="M646 260q0-64-22-115t-60-88-90-55-113-20q-61 0-113 19t-90 56-60 87-22 116v448h126V264q0-26 8-54t26-53 49-39 76-16q45 0 75 15t49 40 27 52 8 55v444h126V260zM413 900h136L408 756h-94l99 144z"/><glyph unicode="Û" horiz-adv-x="722" d="M646 260q0-64-22-115t-60-88-90-55-113-20q-61 0-113 19t-90 56-60 87-22 116v448h126V264q0-26 8-54t26-53 49-39 76-16q45 0 75 15t49 40 27 52 8 55v444h126V260zM429 756l-69 90-69-90H179l115 144h135l114-144H429z"/><glyph unicode="Ü" horiz-adv-x="722" d="M646 260q0-64-22-115t-60-88-90-55-113-20q-61 0-113 19t-90 56-60 87-22 116v448h126V264q0-26 8-54t26-53 49-39 76-16q45 0 75 15t49 40 27 52 8 55v444h126V260zM181 828q0 29 21 50t55 22q33 0 55-20t23-52q0-31-22-51t-56-21q-33 0-54 21t-22 51zm206 0q0 29 21 50t55 22q33 0 55-20t23-52q0-31-22-51t-56-21q-33 0-54 21t-22 51z"/><glyph unicode="Ý" horiz-adv-x="630" d="M252 303L-14 708h158l174-282 176 282h150L378 303V0H252v303zm115 597h136L362 756h-94l99 144z"/><glyph unicode="Þ" horiz-adv-x="611" d="M79 708h126V571h112q51 0 98-10t84-33 57-63 22-99q0-67-23-108t-62-63-90-31-108-8h-90V0H79v708zm202-444q27 0 56 2t53 12 40 30 16 56q0 33-14 52t-36 30-49 14-52 3h-90V264h76z"/><glyph unicode="ß" horiz-adv-x="611" d="M56 511q0 136 59 196t181 61q43 0 82-11t70-35 47-58 18-81q0-55-27-96t-79-62v-2q40-5 70-23t50-45 30-63 10-74q0-51-17-93t-49-73-74-47-95-17q-21 0-42 2t-42 9v101q14-6 27-8t28-2q63 0 103 37t41 101q0 71-42 107t-110 36h-14v102h8q45 0 74 24t30 70q0 42-29 67t-72 26q-60 0-88-34t-28-87V0H56v511z"/><glyph unicode="à" horiz-adv-x="537" d="M368 66h-3q-26-41-66-59t-88-19q-33 0-64 9T91 24 51 69t-15 63q0 39 14 66t37 46 55 30 64 16 68 7 64 2h30v13q0 45-31 67t-79 23q-38 0-71-13t-57-37l-63 63q40 41 93 59t111 18q51 0 86-11t58-30 35-41 18-48 7-46 1-40V0H368v66zm-7 149h-25q-25 0-56-2t-58-9-47-22-19-41q0-17 7-28t20-20 27-11 30-4q62 0 91 29t30 81v27zm-45 349h-94L81 708h136l99-144z"/><glyph unicode="á" horiz-adv-x="537" d="M368 66h-3q-26-41-66-59t-88-19q-33 0-64 9T91 24 51 69t-15 63q0 39 14 66t37 46 55 30 64 16 68 7 64 2h30v13q0 45-31 67t-79 23q-38 0-71-13t-57-37l-63 63q40 41 93 59t111 18q51 0 86-11t58-30 35-41 18-48 7-46 1-40V0H368v66zm-7 149h-25q-25 0-56-2t-58-9-47-22-19-41q0-17 7-28t20-20 27-11 30-4q62 0 91 29t30 81v27zm-40 493h136L316 564h-94l99 144z"/><glyph unicode="â" horiz-adv-x="537" d="M368 66h-3q-26-41-66-59t-88-19q-33 0-64 9T91 24 51 69t-15 63q0 39 14 66t37 46 55 30 64 16 68 7 64 2h30v13q0 45-31 67t-79 23q-38 0-71-13t-57-37l-63 63q40 41 93 59t111 18q51 0 86-11t58-30 35-41 18-48 7-46 1-40V0H368v66zm-7 149h-25q-25 0-56-2t-58-9-47-22-19-41q0-17 7-28t20-20 27-11 30-4q62 0 91 29t30 81v27zm-24 349l-69 90-69-90H87l115 144h135l114-144H337z"/><glyph unicode="ã" horiz-adv-x="537" d="M368 66h-3q-26-41-66-59t-88-19q-33 0-64 9T91 24 51 69t-15 63q0 39 14 66t37 46 55 30 64 16 68 7 64 2h30v13q0 45-31 67t-79 23q-38 0-71-13t-57-37l-63 63q40 41 93 59t111 18q51 0 86-11t58-30 35-41 18-48 7-46 1-40V0H368v66zm-7 149h-25q-25 0-56-2t-58-9-47-22-19-41q0-17 7-28t20-20 27-11 30-4q62 0 91 29t30 81v27zM85 568q4 24 11 47t21 40 32 29 48 11q20 0 40-6t40-12 35-13 29-6q20 0 30 12t16 30h66q-4-24-11-47t-21-40-32-29-48-11q-20 0-40 6t-40 13-35 13-29 6q-20 0-30-13t-16-30H85z"/><glyph unicode="ä" horiz-adv-x="537" d="M368 66h-3q-26-41-66-59t-88-19q-33 0-64 9T91 24 51 69t-15 63q0 39 14 66t37 46 55 30 64 16 68 7 64 2h30v13q0 45-31 67t-79 23q-38 0-71-13t-57-37l-63 63q40 41 93 59t111 18q51 0 86-11t58-30 35-41 18-48 7-46 1-40V0H368v66zm-7 149h-25q-25 0-56-2t-58-9-47-22-19-41q0-17 7-28t20-20 27-11 30-4q62 0 91 29t30 81v27zM89 636q0 29 21 50t55 22q33 0 55-20t23-52q0-31-22-51t-56-21q-33 0-54 21t-22 51zm206 0q0 29 21 50t55 22q33 0 55-20t23-52q0-31-22-51t-56-21q-33 0-54 21t-22 51z"/><glyph unicode="å" horiz-adv-x="537" d="M368 66h-3q-26-41-66-59t-88-19q-33 0-64 9T91 24 51 69t-15 63q0 39 14 66t37 46 55 30 64 16 68 7 64 2h30v13q0 45-31 67t-79 23q-38 0-71-13t-57-37l-63 63q40 41 93 59t111 18q51 0 86-11t58-30 35-41 18-48 7-46 1-40V0H368v66zm-7 149h-25q-25 0-56-2t-58-9-47-22-19-41q0-17 7-28t20-20 27-11 30-4q62 0 91 29t30 81v27zm13 440q0-45-30-73t-75-29q-45 0-75 28t-30 73q0 22 8 41t22 32 33 22 42 8q45 0 75-28t30-74zm-48 0q0 23-17 38t-40 16q-23 0-40-15t-17-39q0-23 17-38t40-16q23 0 40 15t17 39z"/><glyph unicode="æ" horiz-adv-x="852" d="M816 204H466q-1-29 10-52t28-40 39-25 40-9q45 0 75 18t53 47l83-59q-40-51-92-73T583-12q-61 0-107 25t-72 61q-32-49-82-67T211-11q-32 0-63 8T92 23 52 68t-16 65q0 85 60 120t172 35h98q0 53-27 84t-81 31q-38 0-71-13t-57-37l-63 63q40 41 93 59t111 18q42 2 86-15t73-56q29 32 66 51t89 19q58 0 101-20t73-54 43-81 14-100v-33zM239 79q30 0 54 10t40 25 24 36 9 42v12h-60q-25 0-51-2t-49-9-36-19-14-33q0-17 8-29t21-19 27-11 27-3zm461 209q-3 51-33 82t-83 32q-50 0-81-32t-35-82h232z"/><glyph unicode="ç" horiz-adv-x="482" d="M396 336q-21 22-44 35t-47 13q-33 0-59-12t-44-32-28-46-10-54q0-28 9-54t28-46 45-32 59-12q28 0 52 11t41 34l80-86q-18-18-41-30T391 4 345-8t-38-4l-34-48q22 0 43-2t39-10 28-25 11-46q0-27-13-46t-34-30-45-16-47-5q-56 0-106 28l22 46q38-20 82-20 8 0 18 2t18 6 15 13 6 21q0 20-17 28t-34 8q-10 0-19-2t-18-5l-27 25 57 83q-45 8-83 29t-65 53-44 73-16 92q0 57 20 103t56 80 83 51 102 18q46 0 92-17t82-56l-83-83z"/><glyph unicode="è" horiz-adv-x="574" d="M164 198q6-54 42-84t87-30q45 0 75 18t54 47l86-65q-42-52-94-74T305-12q-54 0-102 18t-83 51-55 79-21 104q0 57 20 103t56 80 83 51 102 18q50 0 91-17t71-51 46-81 17-112v-33H164zm246 90q-1 53-33 83t-89 31q-54 0-85-31t-39-83h246zm-76 276h-94L99 708h136l99-144z"/><glyph unicode="é" horiz-adv-x="574" d="M164 198q6-54 42-84t87-30q45 0 75 18t54 47l86-65q-42-52-94-74T305-12q-54 0-102 18t-83 51-55 79-21 104q0 57 20 103t56 80 83 51 102 18q50 0 91-17t71-51 46-81 17-112v-33H164zm246 90q-1 53-33 83t-89 31q-54 0-85-31t-39-83h246zm-71 420h136L334 564h-94l99 144z"/><glyph unicode="ê" horiz-adv-x="574" d="M164 198q6-54 42-84t87-30q45 0 75 18t54 47l86-65q-42-52-94-74T305-12q-54 0-102 18t-83 51-55 79-21 104q0 57 20 103t56 80 83 51 102 18q50 0 91-17t71-51 46-81 17-112v-33H164zm246 90q-1 53-33 83t-89 31q-54 0-85-31t-39-83h246zm-55 276l-69 90-69-90H105l115 144h135l114-144H355z"/><glyph unicode="ë" horiz-adv-x="574" d="M164 198q6-54 42-84t87-30q45 0 75 18t54 47l86-65q-42-52-94-74T305-12q-54 0-102 18t-83 51-55 79-21 104q0 57 20 103t56 80 83 51 102 18q50 0 91-17t71-51 46-81 17-112v-33H164zm246 90q-1 53-33 83t-89 31q-54 0-85-31t-39-83h246zM107 636q0 29 21 50t55 22q33 0 55-20t23-52q0-31-22-51t-56-21q-33 0-54 21t-22 51zm206 0q0 29 21 50t55 22q33 0 55-20t23-52q0-31-22-51t-56-21q-33 0-54 21t-22 51z"/><glyph unicode="ì" horiz-adv-x="260" d="M70 480h120V0H70v480zm119 84H95L-46 708H90l99-144z"/><glyph unicode="í" horiz-adv-x="260" d="M70 480h120V0H70v480zm102 228h136L167 564H73l99 144z"/><glyph unicode="î" horiz-adv-x="260" d="M70 480h120V0H70v480zm128 84l-69 90-69-90H-52L63 708h135l114-144H198z"/><glyph unicode="ï" horiz-adv-x="260" d="M70 480h120V0H70v480zM-50 636q0 29 21 50t55 22q33 0 55-20t23-52q0-31-22-51t-56-21q-33 0-54 21t-22 51zm206 0q0 29 21 50t55 22q33 0 55-20t23-52q0-31-22-51t-56-21q-33 0-54 21t-22 51z"/><glyph unicode="ð" horiz-adv-x="610" d="M506 712l-117-54q36-39 68-82t56-91 39-100 14-108q0-63-16-116t-50-91-82-60-113-22q-54 0-102 18t-83 51-55 79-21 104q0 57 20 103t54 80 80 51 97 18q33 0 62-8t52-30l2 2q-26 42-58 79t-68 73l-3 3-106-49-60 57 107 50q-7 7-17 15t-21 18-21 17-18 15l100 58q27-21 50-42t35-33l111 51 64-56zM305 96q33 0 59 12t44 32 28 46 10 54q0 28-9 54t-28 46-45 32-59 12q-33 0-59-12t-44-32-28-46-10-54q0-28 9-54t28-46 45-32 59-12z"/><glyph unicode="ñ" horiz-adv-x="574" d="M68 480h114v-77h2q17 36 52 62t95 27q48 0 81-16t55-42 30-60 9-71V0H386v243q0 20-2 44t-10 46-27 36-49 15q-30 0-50-10t-34-27-20-39-6-46V0H68v480zm35 88q4 24 11 47t21 40 32 29 48 11q20 0 40-6t40-12 35-13 29-6q20 0 30 12t16 30h66q-4-24-11-47t-21-40-32-29-48-11q-20 0-40 6t-40 13-35 13-29 6q-20 0-30-13t-16-30h-66z"/><glyph unicode="ò" horiz-adv-x="610" d="M44 240q0 57 20 103t56 80 83 51 102 18q54 0 102-18t83-51 55-79 21-104q0-57-20-103t-56-80-83-51-102-18q-54 0-102 18t-83 51-55 79-21 104zm120 0q0-28 9-54t28-46 45-32 59-12q33 0 59 12t44 32 28 46 10 54q0 28-9 54t-28 46-45 32-59 12q-33 0-59-12t-44-32-28-46-10-54zm188 324h-94L117 708h136l99-144z"/><glyph unicode="ó" horiz-adv-x="610" d="M44 240q0 57 20 103t56 80 83 51 102 18q54 0 102-18t83-51 55-79 21-104q0-57-20-103t-56-80-83-51-102-18q-54 0-102 18t-83 51-55 79-21 104zm120 0q0-28 9-54t28-46 45-32 59-12q33 0 59 12t44 32 28 46 10 54q0 28-9 54t-28 46-45 32-59 12q-33 0-59-12t-44-32-28-46-10-54zm193 468h136L352 564h-94l99 144z"/><glyph unicode="ô" horiz-adv-x="610" d="M44 240q0 57 20 103t56 80 83 51 102 18q54 0 102-18t83-51 55-79 21-104q0-57-20-103t-56-80-83-51-102-18q-54 0-102 18t-83 51-55 79-21 104zm120 0q0-28 9-54t28-46 45-32 59-12q33 0 59 12t44 32 28 46 10 54q0 28-9 54t-28 46-45 32-59 12q-33 0-59-12t-44-32-28-46-10-54zm209 324l-69 90-69-90H123l115 144h135l114-144H373z"/><glyph unicode="õ" horiz-adv-x="610" d="M44 240q0 57 20 103t56 80 83 51 102 18q54 0 102-18t83-51 55-79 21-104q0-57-20-103t-56-80-83-51-102-18q-54 0-102 18t-83 51-55 79-21 104zm120 0q0-28 9-54t28-46 45-32 59-12q33 0 59 12t44 32 28 46 10 54q0 28-9 54t-28 46-45 32-59 12q-33 0-59-12t-44-32-28-46-10-54zm-43 328q4 24 11 47t21 40 32 29 48 11q20 0 40-6t40-12 35-13 29-6q20 0 30 12t16 30h66q-4-24-11-47t-21-40-32-29-48-11q-20 0-40 6t-40 13-35 13-29 6q-20 0-30-13t-16-30h-66z"/><glyph unicode="ö" horiz-adv-x="610" d="M44 240q0 57 20 103t56 80 83 51 102 18q54 0 102-18t83-51 55-79 21-104q0-57-20-103t-56-80-83-51-102-18q-54 0-102 18t-83 51-55 79-21 104zm120 0q0-28 9-54t28-46 45-32 59-12q33 0 59 12t44 32 28 46 10 54q0 28-9 54t-28 46-45 32-59 12q-33 0-59-12t-44-32-28-46-10-54zm-39 396q0 29 21 50t55 22q33 0 55-20t23-52q0-31-22-51t-56-21q-33 0-54 21t-22 51zm206 0q0 29 21 50t55 22q33 0 55-20t23-52q0-31-22-51t-56-21q-33 0-54 21t-22 51z"/><glyph unicode="÷" horiz-adv-x="666" d="M604 354V252H62v102h542zM258 483q0 31 22 53t53 22q31 0 53-22t22-53q0-31-22-53t-53-22q-31 0-53 22t-22 53zm0-360q0 31 22 53t53 22q31 0 53-22t22-53q0-31-22-53t-53-22q-31 0-53 22t-22 53z"/><glyph unicode="ø" horiz-adv-x="610" d="M384 360q-16 11-36 17t-43 7q-33 0-59-12t-44-32-28-46-10-54q0-45 23-80l197 200zM227 119q32-23 78-23 33 0 59 12t44 32 28 46 10 54q0 43-21 78L227 119zm352 355l-70-71q26-32 41-73t16-90q0-57-20-103t-56-80-83-51-102-18q-46 0-86 13t-73 36L76-34 36 7l67 68q-28 32-43 73t-16 92q0 57 20 103t56 80 83 51 102 18q46 0 87-13t74-37l71 72 42-40z"/><glyph unicode="ù" horiz-adv-x="574" d="M506 0H392v77h-2q-17-36-52-62t-95-27q-48 0-81 15t-55 42-30 61-9 71v303h120V237q0-20 2-44t10-46 26-36 50-15q30 0 50 10t34 27 20 39 6 46v262h120V0zM334 564h-94L99 708h136l99-144z"/><glyph unicode="ú" horiz-adv-x="574" d="M506 0H392v77h-2q-17-36-52-62t-95-27q-48 0-81 15t-55 42-30 61-9 71v303h120V237q0-20 2-44t10-46 26-36 50-15q30 0 50 10t34 27 20 39 6 46v262h120V0zM339 708h136L334 564h-94l99 144z"/><glyph unicode="û" horiz-adv-x="574" d="M506 0H392v77h-2q-17-36-52-62t-95-27q-48 0-81 15t-55 42-30 61-9 71v303h120V237q0-20 2-44t10-46 26-36 50-15q30 0 50 10t34 27 20 39 6 46v262h120V0zM355 564l-69 90-69-90H105l115 144h135l114-144H355z"/><glyph unicode="ü" horiz-adv-x="574" d="M506 0H392v77h-2q-17-36-52-62t-95-27q-48 0-81 15t-55 42-30 61-9 71v303h120V237q0-20 2-44t10-46 26-36 50-15q30 0 50 10t34 27 20 39 6 46v262h120V0zM107 636q0 29 21 50t55 22q33 0 55-20t23-52q0-31-22-51t-56-21q-33 0-54 21t-22 51zm206 0q0 29 21 50t55 22q33 0 55-20t23-52q0-31-22-51t-56-21q-33 0-54 21t-22 51z"/><glyph unicode="ý" horiz-adv-x="519" d="M3 480h132l134-333h2l120 333h125L289-103q-13-34-28-59t-37-43-49-26-69-9q-47 0-92 12l15 108q14-5 29-8t32-4q22 0 37 4t25 12 18 22 15 33l23 57L3 480zm309 228h136L307 564h-94l99 144z"/><glyph unicode="þ" horiz-adv-x="630" d="M68 756h120V418h2q22 36 65 55t94 19q55 0 99-19t75-54 47-80 16-99q0-53-17-99t-47-80-74-53-94-20q-34 0-60 7t-46 18-34 23-23 25h-3v-289H68v984zm398-516q0 28-9 54t-28 46-45 32-59 12q-33 0-59-12t-44-32-28-46-10-54q0-28 9-54t28-46 45-32 59-12q33 0 59 12t44 32 28 46 10 54z"/><glyph unicode="ÿ" horiz-adv-x="519" d="M3 480h132l134-333h2l120 333h125L289-103q-13-34-28-59t-37-43-49-26-69-9q-47 0-92 12l15 108q14-5 29-8t32-4q22 0 37 4t25 12 18 22 15 33l23 57L3 480zm77 156q0 29 21 50t55 22q33 0 55-20t23-52q0-31-22-51t-56-21q-33 0-54 21t-22 51zm206 0q0 29 21 50t55 22q33 0 55-20t23-52q0-31-22-51t-56-21q-33 0-54 21t-22 51z"/><glyph unicode="ı" horiz-adv-x="260" d="M70 480h120V0H70v480z"/><glyph unicode="Œ" horiz-adv-x="1000" d="M645 420h270V306H645V114h305V0H453q-96 0-170 27t-127 75-79 112-27 140q0 76 27 140t79 112 126 75 171 27h480V594H645V420zM519 594h-63q-23 0-52-4t-58-15-58-28-51-44-35-64-14-85q0-48 13-85t36-63 50-44 58-28 59-15 52-5h63v480z"/><glyph unicode="œ" horiz-adv-x="926" d="M540 204q-1-27 10-49t28-38 39-24 40-9q45 0 75 18t53 47l83-59q-40-56-92-79T657-12q-60 0-105 20t-73 57q-36-40-82-58T297-12q-54 0-102 18t-83 51-55 79-21 104q0 57 20 103t56 80 83 51 102 18q54 0 101-19t83-59q32 40 78 59t100 19q58 0 101-20t73-54 43-81 14-100v-33H540zm230 84q-1 53-32 83t-79 31q-21 0-43-7t-39-22-29-35-12-50h234zm-614-48q0-30 9-57t28-48 45-33 59-12q34 0 60 12t45 32 28 48 10 58q0 30-9 57t-28 48-45 33-61 12q-33 0-59-12t-44-32-28-48-10-58z"/><glyph unicode="Š" horiz-adv-x="574" d="M426 556q-20 29-53 42t-71 14q-22 0-42-5t-37-16-27-28-10-42q0-36 25-55t62-33 81-27 81-36 62-61 25-101q0-57-21-99t-56-71-83-42-99-14q-66 0-127 22T31 78l95 92q23-35 60-54t80-20q22 0 44 6t40 18 29 30 11 43q0 39-25 60t-62 35-81 28-81 35-62 60-25 101q0 55 22 95t59 66 84 40 96 13q56 0 108-17t95-56l-92-97zM220 900l69-90 69 90h110L353 756H220L106 900h114z"/><glyph unicode="š" horiz-adv-x="444" d="M324 347q-35 49-94 49-24 0-47-12t-23-39q0-22 19-32t48-17 62-14 63-23 48-43 19-74q0-43-18-72t-48-48-67-26-74-8q-56 0-103 16T25 62l80 75q23-26 49-42t65-17q13 0 27 3t26 10 19 17 8 25q0 25-19 37t-48 19-62 14-63 21-48 41-19 72q0 40 16 69t44 49 62 28 71 9q48 0 95-16t76-57l-80-72zM155 708l69-90 69 90h110L288 564H155L41 708h114z"/><glyph unicode="Ÿ" horiz-adv-x="630" d="M252 303L-14 708h158l174-282 176 282h150L378 303V0H252v303zM135 828q0 29 21 50t55 22q33 0 55-20t23-52q0-31-22-51t-56-21q-33 0-54 21t-22 51zm206 0q0 29 21 50t55 22q33 0 55-20t23-52q0-31-22-51t-56-21q-33 0-54 21t-22 51z"/><glyph unicode="Ž" horiz-adv-x="611" d="M35 114l378 480H41v114h529V594L189 114h387V0H35v114zm204 786l69-90 69 90h110L372 756H239L125 900h114z"/><glyph unicode="ž" horiz-adv-x="482" d="M34 111l257 271v2H46v96h390V371L176 96h272V0H34v111zm140 597l69-90 69 90h110L307 564H174L60 708h114z"/><glyph unicode="ƒ" horiz-adv-x="592" d="M480 336H342L285 48q-19-96-64-141T98-139q-26 0-52 6t-50 18l45 92q10-7 22-10t25-4q39 0 55 29t25 75l53 269H108v90h131l22 111q7 37 20 70t34 59 51 39 75 15q32 0 60-8t57-23l-46-93q-27 16-55 16-22 0-36-9t-23-24-13-33-9-36l-18-84h122v-90z"/><glyph unicode="ˆ" horiz-adv-x="260" d="M198 564l-69 90-69-90H-52L63 708h135l114-144H198z"/><glyph unicode="ˇ" horiz-adv-x="260" d="M63 708l69-90 69 90h110L196 564H63L-51 708H63z"/><glyph unicode="˚" horiz-adv-x="260" d="M235 655q0-45-30-73t-75-29q-45 0-75 28t-30 73q0 22 8 41t22 32 33 22 42 8q45 0 75-28t30-74zm-48 0q0 23-17 38t-40 16q-23 0-40-15t-17-39q0-23 17-38t40-16q23 0 40 15t17 39z"/><glyph unicode="˜" horiz-adv-x="260" d="M-54 568q4 24 11 47t21 40 32 29 48 11q20 0 40-6t40-12 35-13 29-6q20 0 30 12t16 30h66q-4-24-11-47t-21-40-32-29-48-11q-20 0-40 6t-40 13-35 13-29 6q-20 0-30-13t-16-30h-66z"/><glyph unicode="–" horiz-adv-x="500" d="M500 198H0v96h500v-96z"/><glyph unicode="—" horiz-adv-x="1000" d="M1000 198H0v96h1000v-96z"/><glyph unicode="‘" horiz-adv-x="296" d="M174 444H52l85 264h107l-70-264z"/><glyph unicode="’" horiz-adv-x="296" d="M122 708h122l-85-264H52l70 264z"/><glyph unicode="‚" horiz-adv-x="296" d="M122 138h122l-85-264H52l70 264z"/><glyph unicode="“" horiz-adv-x="519" d="M180 444H58l85 264h107l-70-264zm211 0H269l85 264h107l-70-264z"/><glyph unicode="”" horiz-adv-x="519" d="M339 708h122l-85-264H269l70 264zm-211 0h122l-85-264H58l70 264z"/><glyph unicode="„" horiz-adv-x="519" d="M338 138h122l-85-264H268l70 264zm-209 0h122l-85-264H59l70 264z"/><glyph unicode="†" horiz-adv-x="593" d="M353 505h199v-96H353v-535H239v535H41v96h198v203h114V505z"/><glyph unicode="‡" horiz-adv-x="593" d="M353 523h193v-96H353V156h193V60H353v-186H239V60H47v96h192v271H47v96h192v185h114V523z"/><glyph unicode="•" horiz-adv-x="500" d="M73 354q0 37 14 69t38 56 56 38 69 14q37 0 69-14t56-38 38-56 14-69q0-37-14-69t-38-56-56-38-69-14q-37 0-69 14t-56 38-38 56-14 69z"/><glyph unicode="…" horiz-adv-x="1000" d="M87 70q0 32 23 55t57 23q32 0 56-22t24-54q0-32-23-55T167-6q-16 0-30 6t-26 16-17 24-7 30zm333 0q0 32 23 55t57 23q32 0 56-22t24-54q0-32-23-55T500-6q-16 0-30 6t-26 16-17 24-7 30zm333 0q0 32 23 55t57 23q32 0 56-22t24-54q0-32-23-55T833-6q-16 0-30 6t-26 16-17 24-7 30z"/><glyph unicode="‰" horiz-adv-x="1167" d="M411 165q0 36 14 68t38 56 56 38 68 14q36 0 68-14t57-38 38-56 14-68q0-36-14-68t-38-57-56-38-69-14q-36 0-68 14t-56 38-38 56-14 69zm396 0q0 36 14 68t38 56 56 38 68 14q36 0 68-14t57-38 38-56 14-68q0-36-14-68t-38-57-56-38-69-14q-36 0-68 14t-56 38-38 56-14 69zM7 544q0 36 14 68t38 56 56 38 68 14q36 0 68-14t57-38 38-56 14-68q0-36-14-68t-38-57-56-38-69-14q-36 0-68 14t-56 38-38 56-14 69zm90 0q0-38 24-62t62-25q38 0 62 24t25 63q0 38-24 62t-63 24q-38 0-62-24t-24-62zm404-379q0-38 24-62t62-25q38 0 62 24t25 63q0 38-24 62t-63 24q-38 0-62-24t-24-62zm396 0q0-38 24-62t62-25q38 0 62 24t25 63q0 38-24 62t-63 24q-38 0-62-24t-24-62zM550 740l83-38L217-32 134 6l416 734z"/><glyph unicode="‹" horiz-adv-x="296" d="M142 248L258 73l-76-51L30 248l152 224 75-51-115-173z"/><glyph unicode="›" horiz-adv-x="296" d="M154 246L38 421l76 51 152-226L114 22 39 73l115 173z"/><glyph unicode="€" horiz-adv-x="610" d="M584 25Q555 6 509-6T408-18q-68 0-120 19t-91 52-62 76-36 93H15l28 86h45q-1 5-1 11t0 11v46q0 12 3 24H18l30 86h55q15 55 44 99t69 75 92 49 112 17q48 0 90-9t70-24l-38-100q-23 14-57 21t-71 7q-30 0-60-9t-55-26-45-42-30-58h288l-28-86H205q-3-21-3-49v-32q0-5 2-11h256l-27-86H219q7-28 24-52t42-43 57-28 70-11q75 0 131 33l41-96z"/><glyph unicode="™" horiz-adv-x="1000" d="M162 618H40v90h346v-90H264V296H162v322zm318 90h142l98-268 98 268h142V296H858v268h-2L755 296h-70L584 564h-2V296H480v412z"/><glyph unicode="" horiz-adv-x="260" d="M177 756H83L-58 900H78l99-144z"/><glyph unicode="" horiz-adv-x="260" d="M182 900h136L177 756H83l99 144z"/><glyph unicode="" horiz-adv-x="260" d="M198 756l-69 90-69-90H-52L63 900h135l114-144H198z"/><glyph unicode="" horiz-adv-x="260" d="M63 900l69-90 69 90h110L196 756H63L-51 900H63z"/><glyph unicode="" horiz-adv-x="260" d="M-54 760q4 24 11 47t21 40 32 29 48 11q20 0 40-6t40-12 35-13 29-6q20 0 30 12t16 30h66q-4-24-11-47t-21-40-32-29-48-11q-20 0-40 6t-40 13-35 13-29 6q-20 0-30-13t-16-30h-66z"/><glyph unicode="" horiz-adv-x="260" d="M-50 828q0 29 21 50t55 22q33 0 55-20t23-52q0-31-22-51t-56-21q-33 0-54 21t-22 51zm206 0q0 29 21 50t55 22q33 0 55-20t23-52q0-31-22-51t-56-21q-33 0-54 21t-22 51z"/><glyph unicode="" horiz-adv-x="260" d="M235 837q0-45-30-73t-75-29q-45 0-75 28t-30 73q0 22 8 41t22 32 33 22 42 8q45 0 75-28t30-74zm-48 0q0 23-17 38t-40 16q-23 0-40-15t-17-39q0-23 17-38t40-16q23 0 40 15t17 39z"/></font>
</defs>
</svg>
