<svg width="321" height="26" xmlns="http://www.w3.org/2000/svg"><path d="M314 4.485c0-.481.092-.934.276-1.359a3.47 3.47 0 0 1 .753-1.105 3.63 3.63 0 0 1 1.112-.745A3.377 3.377 0 0 1 317.5 1c.481 0 .934.092 1.359.276a3.63 3.63 0 0 1 1.112.745c.318.312.568.68.753 1.105.184.425.276.878.276 1.359 0 .48-.092.93-.276 1.35A3.493 3.493 0 0 1 317.5 7.94a3.52 3.52 0 0 1-2.471-1.005 3.493 3.493 0 0 1-.753-1.098A3.323 3.323 0 0 1 314 4.485zm.553 0c0 .399.076.777.23 1.136.153.358.363.672.63.944a2.895 2.895 0 0 0 2.087.867 2.892 2.892 0 0 0 2.088-.867 3.05 3.05 0 0 0 .63-.944c.153-.359.23-.737.23-1.136 0-.41-.077-.793-.23-1.152a2.957 2.957 0 0 0-.63-.936 2.957 2.957 0 0 0-.937-.63 2.892 2.892 0 0 0-1.151-.23c-.41 0-.793.077-1.151.23-.359.154-.67.364-.937.63a2.957 2.957 0 0 0-.63.936c-.153.359-.23.742-.23 1.152zm1.58-1.98h1.382c.185 0 .364.02.538.06.174.042.33.108.468.2.138.092.248.21.33.353.082.144.123.323.123.538 0 .286-.082.52-.246.698-.164.18-.384.3-.66.36l1.06 1.72h-.86l-.922-1.642h-.506v1.642h-.706v-3.93zm1.275 1.719c.205 0 .399-.039.583-.115.184-.077.277-.233.277-.469 0-.215-.085-.358-.254-.43a1.342 1.342 0 0 0-.53-.107h-.644v1.12h.568zM6.625 17.525h.05L11.1 2.3h2.15l4.425 15.225h.05L22.05 2.3h1.9L18.725 20h-2.1l-4.45-15.2h-.05L7.675 20h-2.1L.35 2.3h1.9l4.375 15.225zm27.95-4.275c-.05-1.1-.404-2.012-1.063-2.738-.658-.725-1.595-1.087-2.812-1.087-.567 0-1.092.104-1.575.313a4.226 4.226 0 0 0-2.15 2.075 3.95 3.95 0 0 0-.375 1.437h7.975zm1.725.55v.375c0 .133-.008.275-.025.425h-9.7c.017.583.133 1.133.35 1.65.217.517.517.967.9 1.35.383.383.833.687 1.35.912a4.15 4.15 0 0 0 1.675.338c.883 0 1.646-.204 2.288-.613.641-.408 1.129-.879 1.462-1.412l1.275 1c-.7.883-1.47 1.517-2.313 1.9a6.466 6.466 0 0 1-2.712.575c-.867 0-1.67-.154-2.413-.463a5.651 5.651 0 0 1-1.912-1.287 6.1 6.1 0 0 1-1.262-1.95 6.381 6.381 0 0 1-.463-2.45c0-.883.15-1.7.45-2.45.3-.75.717-1.4 1.25-1.95a5.748 5.748 0 0 1 1.875-1.287A5.82 5.82 0 0 1 30.7 8c.917 0 1.725.154 2.425.463.7.308 1.283.724 1.75 1.25a5.37 5.37 0 0 1 1.063 1.837c.241.7.362 1.45.362 2.25zm5.4 4.225V20H40V1.1h1.7v9.225h.05a4.831 4.831 0 0 1 1.95-1.737A5.566 5.566 0 0 1 46.175 8c.917 0 1.746.158 2.488.475a5.69 5.69 0 0 1 1.9 1.3c.525.55.933 1.2 1.224 1.95.292.75.438 1.558.438 2.425 0 .867-.146 1.675-.438 2.425-.291.75-.7 1.4-1.224 1.95a5.668 5.668 0 0 1-1.9 1.3c-.742.317-1.571.475-2.488.475a5.67 5.67 0 0 1-2.475-.575 4.8 4.8 0 0 1-1.95-1.7h-.05zm8.725-3.875c0-.65-.1-1.262-.3-1.838a4.447 4.447 0 0 0-.862-1.5A4.067 4.067 0 0 0 47.875 9.8c-.55-.25-1.175-.375-1.875-.375-.65 0-1.25.12-1.8.362a4.32 4.32 0 0 0-1.425 1c-.4.426-.712.925-.938 1.5a5.066 5.066 0 0 0-.337 1.863c0 .667.112 1.287.337 1.862.226.576.538 1.071.938 1.488A4.412 4.412 0 0 0 46 18.85c.7 0 1.325-.12 1.875-.363a3.93 3.93 0 0 0 1.388-1c.375-.425.662-.924.862-1.5.2-.575.3-1.187.3-1.837zM61.65 20h-1.975l7.65-17.7h1.75l7.6 17.7h-2l-1.95-4.65h-9.15L61.65 20zm2.6-6.3h7.8l-3.9-9.4-3.9 9.4zM80.875 26h-1.7V8.3h1.7v2.025h.075a4.643 4.643 0 0 1 1.938-1.737A5.594 5.594 0 0 1 85.35 8c.917 0 1.746.158 2.488.475a5.69 5.69 0 0 1 1.9 1.3c.525.55.933 1.2 1.225 1.95.291.75.437 1.558.437 2.425 0 .867-.146 1.675-.438 2.425-.291.75-.7 1.4-1.225 1.95a5.668 5.668 0 0 1-1.9 1.3c-.741.317-1.57.475-2.487.475a5.594 5.594 0 0 1-2.462-.588 4.76 4.76 0 0 1-1.938-1.687h-.075V26zM89.6 14.15c0-.65-.1-1.262-.3-1.838a4.447 4.447 0 0 0-.862-1.5A4.067 4.067 0 0 0 87.05 9.8c-.55-.25-1.175-.375-1.875-.375-.65 0-1.25.12-1.8.362a4.32 4.32 0 0 0-1.425 1c-.4.426-.712.925-.938 1.5a5.066 5.066 0 0 0-.337 1.863c0 .667.112 1.287.338 1.862a4.47 4.47 0 0 0 .937 1.488 4.412 4.412 0 0 0 3.225 1.35c.7 0 1.325-.12 1.875-.363a3.93 3.93 0 0 0 1.388-1c.375-.425.662-.924.862-1.5.2-.575.3-1.187.3-1.837zM96.75 26h-1.7V8.3h1.7v2.025h.075a4.643 4.643 0 0 1 1.938-1.737A5.594 5.594 0 0 1 101.225 8c.917 0 1.746.158 2.488.475a5.69 5.69 0 0 1 1.9 1.3c.525.55.933 1.2 1.225 1.95.291.75.437 1.558.437 2.425 0 .867-.146 1.675-.438 2.425-.291.75-.7 1.4-1.225 1.95a5.668 5.668 0 0 1-1.9 1.3c-.741.317-1.57.475-2.487.475a5.594 5.594 0 0 1-2.462-.588 4.76 4.76 0 0 1-1.938-1.687h-.075V26zm8.725-11.85c0-.65-.1-1.262-.3-1.838a4.447 4.447 0 0 0-.862-1.5 4.067 4.067 0 0 0-1.388-1.012c-.55-.25-1.175-.375-1.875-.375-.65 0-1.25.12-1.8.362a4.32 4.32 0 0 0-1.425 1c-.4.426-.712.925-.938 1.5a5.066 5.066 0 0 0-.337 1.863c0 .667.112 1.287.338 1.862a4.47 4.47 0 0 0 .937 1.488 4.412 4.412 0 0 0 3.225 1.35c.7 0 1.325-.12 1.875-.363a3.93 3.93 0 0 0 1.388-1c.375-.425.662-.924.862-1.5.2-.575.3-1.187.3-1.837zm5.55-11.85h5.275c.667 0 1.342.07 2.025.213a5.506 5.506 0 0 1 1.837.725c.542.341.984.804 1.325 1.387.342.583.513 1.317.513 2.2 0 .933-.283 1.746-.85 2.437-.567.692-1.325 1.146-2.275 1.363v.05c1.15.133 2.104.58 2.862 1.337.759.759 1.138 1.788 1.138 3.088 0 .733-.154 1.404-.463 2.013a4.415 4.415 0 0 1-1.312 1.55c-.567.425-1.258.754-2.075.987-.817.233-1.733.35-2.75.35h-5.25V2.3zm1.8 7.75h3.625c.433 0 .87-.05 1.313-.15.441-.1.845-.27 1.212-.513.367-.241.662-.562.888-.962.225-.4.337-.892.337-1.475 0-.567-.112-1.046-.338-1.438a2.8 2.8 0 0 0-.912-.962 3.918 3.918 0 0 0-1.35-.538 8.03 8.03 0 0 0-1.65-.162h-3.125v6.2zm0 8.4h3.35c.65 0 1.27-.062 1.862-.188a4.775 4.775 0 0 0 1.55-.6 3.197 3.197 0 0 0 1.063-1.075c.267-.441.4-.97.4-1.587 0-1.167-.396-2.037-1.188-2.613-.791-.575-1.912-.862-3.362-.862h-3.675v6.925zm22.5 1.55a22.634 22.634 0 0 1-.1-2h-.05c-.333.683-.875 1.237-1.625 1.663a4.746 4.746 0 0 1-2.375.637c-1.483 0-2.596-.442-3.338-1.325-.741-.883-1.112-2.05-1.112-3.5V8.3h1.7v6.475c0 .617.05 1.175.15 1.675.1.5.27.93.513 1.288.241.358.566.637.975.837.408.2.92.3 1.537.3.45 0 .887-.092 1.313-.275a3.225 3.225 0 0 0 1.137-.838c.333-.375.6-.85.8-1.425.2-.575.3-1.254.3-2.037v-6h1.7v9.125a38.237 38.237 0 0 0 .1 2.575h-1.625zm7.75 0h-1.7V8.3h1.7V20zm.35-16.2c0 .35-.125.637-.375.862-.25.226-.525.338-.825.338-.3 0-.575-.112-.825-.338a1.109 1.109 0 0 1-.375-.862c0-.35.125-.637.375-.862.25-.226.525-.338.825-.338.3 0 .575.112.825.337.25.226.375.513.375.863zM149.35 20h-1.7V1.1h1.7V20zm14.175-1.975a4.8 4.8 0 0 1-1.95 1.7 5.67 5.67 0 0 1-2.475.575c-.917 0-1.746-.158-2.487-.475a5.668 5.668 0 0 1-1.9-1.3 5.871 5.871 0 0 1-1.225-1.95 6.632 6.632 0 0 1-.438-2.425c0-.867.146-1.675.438-2.425.291-.75.7-1.4 1.225-1.95a5.668 5.668 0 0 1 1.9-1.3c.741-.317 1.57-.475 2.487-.475.85 0 1.675.196 2.475.588.8.391 1.45.97 1.95 1.737h.05V1.1h1.7V20h-1.7v-1.975h-.05zm-8.675-3.875c0 .65.1 1.262.3 1.838.2.575.487 1.074.862 1.5a3.93 3.93 0 0 0 1.388 1c.55.241 1.175.362 1.875.362a4.425 4.425 0 0 0 3.225-1.35c.4-.417.712-.912.938-1.488a5.066 5.066 0 0 0 .337-1.862c0-.667-.112-1.287-.338-1.862a4.618 4.618 0 0 0-.937-1.5 4.32 4.32 0 0 0-1.425-1 4.425 4.425 0 0 0-1.8-.363c-.7 0-1.325.125-1.875.375s-1.012.587-1.388 1.012a4.447 4.447 0 0 0-.862 1.5c-.2.576-.3 1.188-.3 1.838zm23.9-.9c-.05-1.1-.404-2.012-1.063-2.738-.658-.725-1.595-1.087-2.812-1.087-.567 0-1.092.104-1.575.313a4.226 4.226 0 0 0-2.15 2.075 3.95 3.95 0 0 0-.375 1.437h7.975zm1.725.55v.375c0 .133-.008.275-.025.425h-9.7c.017.583.133 1.133.35 1.65.217.517.517.967.9 1.35.383.383.833.687 1.35.912a4.15 4.15 0 0 0 1.675.338c.883 0 1.646-.204 2.287-.613.642-.408 1.13-.879 1.463-1.412l1.275 1c-.7.883-1.47 1.517-2.313 1.9a6.466 6.466 0 0 1-2.712.575c-.867 0-1.67-.154-2.412-.463a5.651 5.651 0 0 1-1.913-1.287 6.1 6.1 0 0 1-1.262-1.95 6.381 6.381 0 0 1-.463-2.45c0-.883.15-1.7.45-2.45.3-.75.717-1.4 1.25-1.95a5.748 5.748 0 0 1 1.875-1.287A5.82 5.82 0 0 1 174.875 8c.917 0 1.725.154 2.425.463.7.308 1.283.724 1.75 1.25a5.37 5.37 0 0 1 1.063 1.837c.241.7.362 1.45.362 2.25zm3.65-2.925a38.237 38.237 0 0 0-.1-2.575h1.625a22.634 22.634 0 0 1 .1 2h.05a4.053 4.053 0 0 1 1.5-1.663A4.097 4.097 0 0 1 189.55 8c.217 0 .412.008.587.025.176.017.355.05.538.1l-.225 1.6a4.944 4.944 0 0 0-1.2-.15c-.45 0-.883.083-1.3.25-.417.167-.78.43-1.087.788-.309.358-.559.816-.75 1.375-.192.558-.288 1.229-.288 2.012v6h-1.7v-9.125zm20.2-1.15h-2.75V20h-1.7V9.725h-2.45V8.3h2.45V5.1c0-1.333.325-2.383.975-3.15.65-.767 1.65-1.15 3-1.15.217 0 .45.012.7.038.25.025.483.07.7.137l-.3 1.5a6.528 6.528 0 0 0-.55-.125 3.517 3.517 0 0 0-.625-.05c-.45 0-.82.075-1.113.225a1.61 1.61 0 0 0-.674.637 2.791 2.791 0 0 0-.326.963 7.483 7.483 0 0 0-.087 1.175v3h2.75v1.425zm14.05 4.425c0 .883-.154 1.7-.463 2.45-.308.75-.737 1.4-1.287 1.95a5.81 5.81 0 0 1-1.975 1.287c-.767.309-1.608.463-2.525.463-.9 0-1.733-.154-2.5-.463a5.835 5.835 0 0 1-1.975-1.287c-.55-.55-.98-1.2-1.287-1.95a6.381 6.381 0 0 1-.463-2.45c0-.883.154-1.7.463-2.45.308-.75.737-1.4 1.287-1.95a5.81 5.81 0 0 1 1.975-1.287 6.638 6.638 0 0 1 2.5-.463c.917 0 1.758.154 2.525.463a5.835 5.835 0 0 1 1.975 1.287c.55.55.98 1.2 1.287 1.95a6.37 6.37 0 0 1 .463 2.45zm-1.8 0c0-.65-.104-1.262-.313-1.838a4.502 4.502 0 0 0-.887-1.5 4.2 4.2 0 0 0-1.4-1.012c-.55-.25-1.167-.375-1.85-.375s-1.296.125-1.838.375a4.234 4.234 0 0 0-1.387 1.012c-.383.426-.68.925-.888 1.5a5.353 5.353 0 0 0-.312 1.838c0 .65.104 1.262.313 1.838a4.51 4.51 0 0 0 .887 1.5c.383.425.846.758 1.387 1 .542.241 1.155.362 1.838.362s1.3-.12 1.85-.363a4.055 4.055 0 0 0 1.4-1c.383-.425.68-.924.887-1.5a5.353 5.353 0 0 0 .313-1.837zm5.45-3.275a38.237 38.237 0 0 0-.1-2.575h1.625a22.634 22.634 0 0 1 .1 2h.05a4.053 4.053 0 0 1 1.5-1.663A4.097 4.097 0 0 1 227.45 8c.217 0 .412.008.588.025.175.017.354.05.537.1l-.225 1.6a4.944 4.944 0 0 0-1.2-.15c-.45 0-.883.083-1.3.25-.417.167-.78.43-1.088.788-.308.358-.558.816-.75 1.375-.191.558-.287 1.229-.287 2.012v6h-1.7v-9.125zM236.8 20h-1.975l7.65-17.7h1.75l7.6 17.7h-2l-1.95-4.65h-9.15L236.8 20zm2.6-6.3h7.8l-3.9-9.4-3.9 9.4zm14.925-2.825a38.237 38.237 0 0 0-.1-2.575h1.625a22.634 22.634 0 0 1 .1 2h.05a4.053 4.053 0 0 1 1.5-1.663A4.097 4.097 0 0 1 259.75 8c.217 0 .412.008.587.025.176.017.355.05.538.1l-.225 1.6a4.944 4.944 0 0 0-1.2-.15c-.45 0-.883.083-1.3.25-.417.167-.78.43-1.087.788-.309.358-.559.816-.75 1.375-.192.558-.288 1.229-.288 2.012v6h-1.7v-9.125zm16.975.1c-.283-.45-.696-.82-1.238-1.112a3.66 3.66 0 0 0-1.762-.438c-.683 0-1.3.12-1.85.362s-1.02.575-1.412 1a4.395 4.395 0 0 0-.9 1.5 5.427 5.427 0 0 0-.313 1.863c0 .667.104 1.283.313 1.85.208.567.504 1.062.887 1.488.383.425.85.758 1.4 1 .55.241 1.167.362 1.85.362.75 0 1.383-.142 1.9-.425.517-.283.942-.65 1.275-1.1l1.275.95a5.574 5.574 0 0 1-1.838 1.475c-.725.367-1.595.55-2.612.55-.95 0-1.808-.154-2.575-.463a5.701 5.701 0 0 1-1.962-1.287 5.831 5.831 0 0 1-1.263-1.95c-.3-.75-.45-1.567-.45-2.45 0-.883.15-1.7.45-2.45.3-.75.72-1.4 1.262-1.95a5.701 5.701 0 0 1 1.963-1.287c.767-.309 1.625-.463 2.575-.463.783 0 1.58.17 2.388.512a4.675 4.675 0 0 1 1.962 1.513l-1.325.95zm17.325-5.025c-.533-.583-1.212-1.05-2.038-1.4-.825-.35-1.745-.525-2.762-.525-1.033 0-1.967.187-2.8.563a6.277 6.277 0 0 0-2.125 1.537 6.953 6.953 0 0 0-1.35 2.262 7.846 7.846 0 0 0-.475 2.738c0 .983.158 1.908.475 2.775.317.867.767 1.62 1.35 2.263a6.157 6.157 0 0 0 2.15 1.512c.85.367 1.8.55 2.85.55.833 0 1.6-.075 2.3-.225.7-.15 1.308-.367 1.825-.65v-4.925H284.1v-2.1h6.375V18.9c-.933.5-1.95.883-3.05 1.15-1.1.267-2.3.4-3.6.4-1.383 0-2.654-.23-3.813-.688a8.783 8.783 0 0 1-2.987-1.925 8.764 8.764 0 0 1-1.95-2.95c-.467-1.141-.7-2.395-.7-3.762 0-1.383.237-2.646.712-3.787a8.557 8.557 0 0 1 1.976-2.926 8.987 8.987 0 0 1 2.987-1.887c1.15-.45 2.4-.675 3.75-.675 1.417 0 2.68.208 3.787.625 1.109.417 2.03.975 2.763 1.675l-1.725 1.8zM297.2 20h-2.475V2.3h2.475V20zm13.1-14.425c-.35-.483-.825-.88-1.425-1.188-.6-.308-1.275-.462-2.025-.462-.4 0-.804.054-1.213.163a3.319 3.319 0 0 0-1.112.525 2.898 2.898 0 0 0-.813.9c-.208.358-.312.787-.312 1.287 0 .483.096.887.288 1.212.191.326.45.6.774.825a4.94 4.94 0 0 0 1.15.575c.442.159.913.321 1.413.488.6.183 1.208.392 1.825.625a6.536 6.536 0 0 1 1.675.925c.5.383.908.862 1.225 1.438.317.575.475 1.304.475 2.187 0 .917-.17 1.712-.513 2.387a4.889 4.889 0 0 1-1.362 1.675 5.798 5.798 0 0 1-1.963.988 8.116 8.116 0 0 1-2.287.325 8.35 8.35 0 0 1-3.238-.65 6.427 6.427 0 0 1-2.587-1.925l1.925-1.625a4.711 4.711 0 0 0 1.675 1.5 4.66 4.66 0 0 0 2.275.575c.417 0 .833-.058 1.25-.175.417-.117.796-.3 1.138-.55.341-.25.62-.562.837-.938.217-.375.325-.829.325-1.362 0-.533-.112-.98-.337-1.338a2.978 2.978 0 0 0-.913-.912 6.036 6.036 0 0 0-1.337-.637 91.303 91.303 0 0 0-1.613-.538 13.935 13.935 0 0 1-1.675-.613 5.808 5.808 0 0 1-1.475-.925 4.275 4.275 0 0 1-1.05-1.387c-.267-.55-.4-1.233-.4-2.05 0-.883.18-1.642.538-2.275a4.896 4.896 0 0 1 1.4-1.575 5.828 5.828 0 0 1 1.95-.912 8.526 8.526 0 0 1 2.187-.288c1.033 0 2 .183 2.9.55.9.367 1.625.858 2.175 1.475l-1.75 1.7z" fill="#FFF" fill-rule="evenodd"/></svg>